<svg xmlns="http://www.w3.org/2000/svg" width="55" height="55">
        <symbol id="icon-one" viewBox="0 0 54 54">
            <path fill="#ff6262"
                  d="M50.63 32.144C48.673 40.3 43.724 46.083 35.924 49.33 30.569 51.56 25.178 52 21.753 52c-1.371 0-2.428-.071-3.04-.126l-.29-.026c-1.835-.163-3.733-.332-5.565-.942-8.48-2.82-11.785-9.87-11.921-10.168l-.036-.09c-1.906-5.518-.75-8.602.557-10.216 1.706-2.107 4.597-2.957 8.365-2.46 2.362.306 4.632-.605 6.065-2.454 1.432-1.845 1.764-4.275.89-6.5-2.82-7.175-.551-12.878 6.385-16.06C28.711.414 33.713 0 38.03 1.728c5.885 2.357 9.303 8.265 11.136 12.808 2.335 5.787 2.842 11.877 1.465 17.608zm-3.306-16.857c-1.688-4.182-4.796-9.606-10.029-11.701-3.793-1.518-8.27-1.118-13.308 1.192-5.999 2.75-7.803 7.294-5.363 13.505 1.136 2.891.7 6.056-1.17 8.466-1.87 2.413-4.815 3.614-7.892 3.205-3.045-.4-5.315.2-6.563 1.74-1.388 1.717-1.473 4.642-.239 8.244.264.54 3.394 6.632 10.723 9.07 1.613.537 3.314.688 5.115.849l.292.026c2.03.18 9.193.546 16.273-2.4 7.181-2.989 11.735-8.307 13.536-15.81 1.279-5.323.804-10.988-1.375-16.386zm-19.154-1.07c0-2.756 2.228-4.998 4.967-4.998 2.74 0 4.968 2.242 4.968 4.998 0 2.757-2.229 4.999-4.968 4.999s-4.967-2.242-4.967-4.999zm1.987 0c0 1.654 1.337 3 2.98 3s2.98-1.346 2.98-3c0-1.653-1.337-2.999-2.98-2.999s-2.98 1.346-2.98 3zm17.22 10.638a23.513 23.513 0 0 1-.61 6.36c-1.213 5.052-6.061 16.801-24.829 16.801-.941 0-1.845-.038-2.688-.114l-.281-.025c-1.663-.148-3.236-.288-4.675-.766-6.335-2.11-9.13-7.071-9.625-8.045l-.058-.137c-.978-2.916-.987-5.272-.026-6.632.906-1.285 2.87-1.808 5.488-1.456 3.515.467 6.914-1.054 8.878-3.96 1.735-2.564 2.069-5.72.915-8.658-3.168-8.063 2.69-10.75 4.615-11.634 9.617-4.406 16.7-1.154 21.014 9.532a25.882 25.882 0 0 1 1.874 8.55c.007.062.014.12.008.184zm-25.664-7.367c.92 2.342 1.043 4.796.432 7.092.755.965 3.507 3.69 9.45 1.79 1.315-.682 9.196-4.61 13.646-3.347a24.26 24.26 0 0 0-1.587-6.15c-2.733-6.77-6.589-10.204-11.46-10.204-2.054 0-4.372.585-6.889 1.74-2.999 1.375-5.77 3.53-3.592 9.08zM17.5 31.057c.498.99 1.624 2.75 3.635 3.597 2.08.877 4.636.598 7.598-.83 8.66-4.18 13.908-3.566 16.072-2.953l.032-.125c.429-1.79.612-3.63.57-5.487-2.276-1.617-9.058.874-12.971 2.924a.945.945 0 0 1-.153.065c-1.693.55-3.186.772-4.492.772-3.182 0-5.25-1.313-6.41-2.384-.231.468-.487.928-.786 1.37a11.173 11.173 0 0 1-3.095 3.051zm4.438 14.96c.884 0 1.724-.034 2.542-.087-.063-1.456-1.445-2.736-3.49-4.155-2.856-1.984-4.785-5.115-5.292-8.592-.057-.397-.12-.765-.18-1.09a11.26 11.26 0 0 1-5.704.73c-1.782-.238-3.176.018-3.608.63-.433.615-.588 2.185.264 4.764.398.758 2.917 5.153 8.447 6.995 1.221.406 2.682.536 4.229.673l.282.025c.783.07 1.628.106 2.51.107zm22.286-13.229c-1.739-.477-6.495-1.09-14.63 2.837-3.509 1.694-6.62 1.983-9.252.863a8.34 8.34 0 0 1-2.065-1.265 10.65 10.65 0 0 0 3.842 4.906c1.53 1.062 4.188 2.913 4.348 5.622 11.69-1.438 16.105-8.388 17.757-12.963z"/>
        </symbol>
        <symbol id="icon-two" viewBox="0 0 54 54">
            <path fill="#4fb1c9"
                  d="M220.96 25.27h-3.651c-3.491 0-6.33-2.85-6.33-6.352v-3.664a1 1 0 0 1 .997-1.002h3.652c.82 0 1.602.162 2.321.45a6.361 6.361 0 0 1 1.711-5.806l2.584-2.59a.994.994 0 0 1 1.411 0l2.582 2.591a6.363 6.363 0 0 1 1.71 5.812 6.265 6.265 0 0 1 2.34-.455h3.65a1 1 0 0 1 .999 1.001v3.666c0 3.502-2.84 6.351-6.33 6.351h-3.652a1 1 0 0 1-.998-1.001v-3.664c0-.156.012-.308.022-.46l-.323.324a.993.993 0 0 1-1.411 0l-.308-.308c.01.146.022.294.022.443v3.664a1 1 0 0 1-.998 1.002zm9.325-9.014c-2.39 0-4.334 1.951-4.334 4.35v2.662h2.653c2.39 0 4.334-1.95 4.334-4.348v-2.664zm-9.213.207l1.876 1.883 1.877-1.883a4.366 4.366 0 0 0 0-6.15l-1.877-1.884-1.876 1.883a4.366 4.366 0 0 0 0 6.15zm-3.763 6.805h2.653v-2.662c0-2.399-1.945-4.35-4.334-4.35h-2.653v2.664c0 2.397 1.944 4.348 4.334 4.348zm11.637 12.793h-1.997a1 1 0 0 0-.998-1.001 1 1 0 0 0-.998 1.001h-1.997a3.004 3.004 0 0 1 2.995-3.005 3.004 3.004 0 0 1 2.995 3.005zm7.985 1.002h-1.996c0-.552-.449-1.002-.999-1.002s-.998.45-.998 1.002h-1.996a3.003 3.003 0 0 1 2.994-3.005 3.003 3.003 0 0 1 2.995 3.005zm15.07-1.986v.104c0 10.376-8.412 18.817-18.751 18.817a18.568 18.568 0 0 1-9.974-2.911H207.99l-.012-.002-.018.002c-.134 0-.268-.027-.395-.081L200.602 48a1.003 1.003 0 0 1-.604-.92V1.002A1 1 0 0 1 200.996 0h6.964l.015.003.015-.003h30.937a1 1 0 0 1 .999 1.002v14.299c.294-.172.633-.275.998-.275h1.996c1.101 0 1.997.898 1.997 2.003 0 .087-.012.174-.034.258l-3.445 12.962c4.4.543 10.564 1.837 10.564 4.827zm-11.11-17.789l-3.67 13.814-.49 1.948a1 1 0 0 1-1.211.728 1.002 1.002 0 0 1-.725-1.216l.187-.745c-.575-.015-1.141-.038-1.732-.038-11.055 0-16.756 2.312-16.756 3.299 0 .986 5.7 3.298 16.756 3.298 11.055 0 16.755-2.312 16.755-3.298 0-.479-2.269-2.062-9.082-2.868l-.377 1.45a1 1 0 0 1-1.216.718 1.003 1.003 0 0 1-.715-1.222l.595-2.293v-.003-.002l3.675-13.828h-1.961c0 .087-.011.174-.033.258zM206.96 2.004h-4.967V46.42l4.967 2.144zm13.358 46.774a19.009 19.009 0 0 1-.68-.688c-.22-.234-.436-.468-.642-.71-.188-.22-.366-.45-.543-.679a18.754 18.754 0 0 1-.61-.817c-.157-.228-.303-.465-.45-.701-.183-.292-.368-.581-.535-.882-.14-.254-.264-.518-.393-.778-.147-.296-.298-.59-.429-.893-.128-.297-.235-.605-.347-.91-.104-.28-.218-.557-.309-.843-.114-.36-.2-.73-.293-1.098-.061-.246-.137-.487-.189-.736-.092-.438-.152-.887-.212-1.335-.026-.19-.067-.377-.086-.568a18.927 18.927 0 0 1-.103-1.958v-.104c0-4.195 12.265-5.303 18.752-5.303.762 0 1.51.015 2.246.038l2.433-9.158V2.005h-28.941v47.079h11.637c-.107-.097-.2-.208-.306-.306zm29.465-11.002c-3.833 1.998-11.752 2.602-16.534 2.602-4.782 0-12.701-.604-16.534-2.602.037.233.06.468.106.698.019.089.04.176.06.264.094.442.205.878.335 1.307.018.059.033.12.052.179.147.47.318.932.506 1.384l.099.232a16.876 16.876 0 0 0 1.536 2.799c.283.418.584.822.903 1.212l.054.063c.296.358.609.7.933 1.03l.18.186c.329.327.672.639 1.027.937.097.083.199.16.298.239.272.219.553.428.838.63.124.086.246.176.373.26a16.612 16.612 0 0 0 9.235 2.799c8.357 0 15.283-6.178 16.533-14.219z"/>
        </symbol>
        <symbol id="icon-three" viewBox="0 0 54 54">
            <path fill="#ffc243"
                  d="M433.752 18.22a1 1 0 0 1 1.002.997 1 1 0 0 1-1.002.996 1 1 0 0 1-1.003-.996 1 1 0 0 1 1.003-.997zm5.232-2.64a1 1 0 0 1 1.003.998 1 1 0 0 1-1.003.996 1 1 0 0 1-1.002-.996 1 1 0 0 1 1.002-.997zm-1.315 2.509a1 1 0 0 1 1.003.996 1 1 0 0 1-1.003.997 1 1 0 0 1-1.003-.997 1 1 0 0 1 1.003-.996zm-26.23-4.62a1 1 0 0 1 1.004.996 1 1 0 0 1-1.003.998 1 1 0 0 1-1.003-.998 1 1 0 0 1 1.003-.996zm5.85-1.32a1 1 0 0 1 1.002.997 1 1 0 0 1-1.002.996 1 1 0 0 1-1.003-.996 1 1 0 0 1 1.003-.996zm-3.233-.997a1 1 0 0 1 1.003.998 1 1 0 0 1-1.003.996 1 1 0 0 1-1.003-.996 1 1 0 0 1 1.003-.998zm-4.873 18.328a1 1 0 0 1 1.003.996 1 1 0 0 1-1.003.997 1 1 0 0 1-1.002-.997 1 1 0 0 1 1.002-.996zm3.26-2.317a1 1 0 0 1 1.003.997 1 1 0 0 1-1.003.997 1 1 0 0 1-1.003-.997 1 1 0 0 1 1.003-.997zm1.613 1.994a1 1 0 0 1 1.003.997 1 1 0 0 1-1.003.996 1 1 0 0 1-1.003-.996 1 1 0 0 1 1.003-.997zm8.159-20.722a.996.996 0 0 1 .778-1.178 2.736 2.736 0 0 1 1.996.345 2.53 2.53 0 0 1 1.167 1.648c.066.32.421.523.792.444a2.726 2.726 0 0 1 1.995.346c.61.375 1.024.961 1.167 1.648.04.196.18.308.259.356a.723.723 0 0 0 .531.087.996.996 0 1 1 .407 1.953 2.82 2.82 0 0 1-.567.058c-.503 0-.996-.137-1.427-.403a2.525 2.525 0 0 1-1.166-1.647.56.56 0 0 0-.26-.357.71.71 0 0 0-.532-.087c-1.456.292-2.872-.6-3.162-1.994a.558.558 0 0 0-.26-.357.706.706 0 0 0-.531-.087 1.005 1.005 0 0 1-1.187-.775zm6.178 15.859c.026 1.203-.904 2.202-2.074 2.228-.047.001-.114.076-.111.192.026 1.203-.905 2.202-2.074 2.228-.074.001-.113.117-.112.19a1 1 0 0 1-.98 1.02h-.023a1 1 0 0 1-1.002-.975 2.206 2.206 0 0 1 .565-1.535 2.084 2.084 0 0 1 1.508-.694c.048-.001.115-.076.112-.192-.026-1.204.904-2.202 2.073-2.228.048 0 .116-.076.112-.192a1.001 1.001 0 0 1 .982-1.018c.581.03 1.012.426 1.024.976zm-6.769-6.029a2.558 2.558 0 0 1 2.028.01.576.576 0 0 0 .443-.002c.166-.07.3-.205.379-.381a1.003 1.003 0 0 1 1.322-.511c.507.22.737.81.514 1.312a2.716 2.716 0 0 1-1.44 1.417c-.66.276-1.38.271-2.027-.011a.572.572 0 0 0-.443.003.73.73 0 0 0-.379.38c-.599 1.35-2.154 1.982-3.468 1.405a.574.574 0 0 0-.443.003.729.729 0 0 0-.38.38 1.004 1.004 0 0 1-1.321.512.993.993 0 0 1-.514-1.312 2.714 2.714 0 0 1 1.44-1.417 2.557 2.557 0 0 1 2.026.01c.301.132.671-.039.824-.383a2.707 2.707 0 0 1 1.439-1.415zm33.205 6.581c-1.527 3.114-4.507 4.142-4.632 4.184l-18.833 7.59-.01.024a4.473 4.473 0 0 1-.342.797c-.137.245-.286.48-.467.689-.475.552-1.11.955-1.843 1.203a5.103 5.103 0 0 1-.655.17c-.045.01-.09.017-.135.025a5.54 5.54 0 0 1-.55.065c-.05.003-.1.01-.15.012-.22.01-.444.01-.673-.004a3.963 3.963 0 0 1-.79-.134c-.034-.01-.066-.026-.1-.038a3.606 3.606 0 0 1-.621-.248c-.003-.002-.007-.002-.01-.005l-16.443 6.625c1.272 1.833 1.603 3.428.975 4.736-1.034 2.148-4.163 2.416-4.517 2.438-.064.007-.281.027-.596.027-.897 0-2.59-.163-3.793-1.258-.85-.771-1.286-1.877-1.262-3.196.05-2.739.707-7.24 1.095-9.68.05-.318-.292-.491-.502-.544-1.148-.286-1.992-1.351-2.508-3.163-1.463-5.139 2.39-8.275 4.216-9.432l1.506-19.132c.004-.051.02-.098.024-.15v-.003a5.634 5.634 0 0 1 4.757-5.02c2.968-.463 6.879-.95 11.177-1.175.022 0 .04-.012.061-.012.013 0 .023.007.036.007 4.792-.248 10.057-.165 15.062.645a.983.983 0 0 1 .395.054c.006.001.01.006.015.009 2.436.414 4.804 1.004 7.015 1.816.024.007.049.003.073.01.035.013.058.04.09.056 5.18 1.936 9.472 5.12 11.768 10.129.021.045.05.087.064.134.43.964.785 1.999 1.062 3.1.008.02.023.032.03.05 1.176 3.324 1.18 6.216.01 8.6zm-2.152-4.83c.4-.742.553-1.62.377-2.496a17.2 17.2 0 0 0-.7-2.486l-1.188 1.01c.41.735.79 1.482 1.139 2.242a3.86 3.86 0 0 1 .372 1.73zM448.73 9.338l-1.221 1.761c1 1.01 1.857 2.089 2.606 3.216l1.402-1.192a15.429 15.429 0 0 0-2.787-3.785zm-2.712.398l1.204-1.738c-1.527-1.204-3.272-2.183-5.17-2.972l-.672 1.84c1.792.829 3.326 1.794 4.638 2.87zm-6.488-3.645l.645-1.77a37.492 37.492 0 0 0-5.138-1.306l-.587 1.675c1.876.37 3.567.838 5.08 1.4zm-7.084-1.742l.582-1.662a59.9 59.9 0 0 0-5.796-.52v1.688c1.876.09 3.607.258 5.214.494zm-12.234-2.16v1.677a81.268 81.268 0 0 1 5.014-.077V2.107c-.41-.006-.82-.01-1.226-.01-1.284 0-2.548.037-3.788.091zm-2.006 1.783V2.296c-2.147.138-4.175.337-6.017.56v1.67c2.115-.246 4.124-.432 6.017-.554zM405.535 5.45c1.6-.256 3.16-.489 4.648-.683v-1.65a115.7 115.7 0 0 0-1.9.278 3.65 3.65 0 0 0-2.748 2.055zm1.343 41.413c-1.337-1.89-1.782-3.48-1.364-4.857.394-1.295 1.494-2.275 3.362-2.996l16.314-6.742-.24 1.726c-.137.974-.018 2.347.565 3.06.051.062.108.113.166.165l.07.056a1.466 1.466 0 0 0 .44.236c.147.05.307.084.483.096.092.007.186.006.28.007.393 0 .963-.056 1.47-.32.515-.28.939-.774 1.117-1.618l.023-.113c.137-.778.078-1.768-.19-2.947-.124-.55-.12-1.12.013-1.648l.123-.486 19.009-7.854c.292-.156 2.847-1.592 1.961-3.514-1.133-2.463-2.529-4.93-4.753-7.066-.024-.014-.05-.02-.072-.035a1.004 1.004 0 0 1-.277-.287c-1.422-1.294-3.171-2.454-5.38-3.402-.069-.009-.137-.01-.204-.035-.094-.034-.17-.092-.246-.148-1.795-.727-3.875-1.321-6.323-1.736-.032.004-.062.015-.094.015-.11 0-.22-.018-.33-.055-.02-.008-.032-.023-.051-.03-3.65-.574-8.076-.766-13.49-.451-.018 0-.033.01-.05.01-.012 0-.021-.006-.032-.006-4.09.241-8.748.775-14.05 1.646L403.6 26.919l-.46.262c-1.516.862-4.917 3.312-3.742 7.437.288 1.015.686 1.678 1.066 1.773 1.357.339 2.196 1.51 1.993 2.788-.38 2.389-1.023 6.787-1.07 9.405-.015.752.186 1.303.609 1.69.821.746 2.38.77 2.861.715.634-.046 2.435-.378 2.883-1.316.374-.784-.261-1.96-.863-2.81zm.715-2.818l15.922-6.415c-.386-.74-.544-1.558-.596-2.262l-13.292 5.493c-1.26.486-1.991 1.064-2.192 1.723-.12.397-.059.889.158 1.461zm46-21.93a5.601 5.601 0 0 1-1.967 1.39l-20.332 8.401c.005.09.018.182.039.274.18.786.271 1.508.297 2.18l17.87-7.2c.075-.029 2.394-.853 3.54-3.217a6.441 6.441 0 0 0 .552-1.829zm-49.05 8.055c0-3.777 8.117-5.794 9.695-5.794.837 0 1.892 0 2.83.449.845.404 1.85 1.313 1.85 3.352 0 3.355-3.449 6.084-7.689 6.084-3.587 0-6.686 0-6.686-4.09zm2.006.001c0 1.654 0 2.097 4.68 2.097 3.081 0 5.683-1.872 5.683-4.09 0-1.215-.499-1.453-.713-1.556-.523-.25-1.307-.252-1.941-.252h-.012c-1.548 0-7.697 2.027-7.697 3.801zm.32-16.173c0-3.777 8.117-5.794 9.694-5.794h.012c.802 0 1.885.003 2.82.449.844.403 1.849 1.312 1.849 3.352 0 3.354-3.449 6.084-7.69 6.084-3.586 0-6.685 0-6.685-4.091zm2.005.001c0 1.654 0 2.097 4.68 2.097 3.082 0 5.684-1.873 5.684-4.09 0-1.215-.5-1.454-.713-1.556-.523-.25-1.308-.253-1.941-.253h-.013c-1.547 0-7.697 2.028-7.697 3.802zm30.058-.852h.011c.802 0 1.885.002 2.82.45.844.402 1.85 1.311 1.85 3.351 0 3.355-3.45 6.083-7.69 6.083-3.587 0-6.685 0-6.685-4.09 0-3.777 8.116-5.795 9.694-5.794zm-7.689 5.795c0 1.652 0 2.095 4.68 2.095 3.082 0 5.684-1.872 5.684-4.089 0-1.214-.5-1.454-.713-1.557-.525-.25-1.31-.251-1.944-.251h-.012c-1.545 0-7.695 2.027-7.695 3.802z"/>
        </symbol>
        <symbol id="icon-four" viewBox="0 0 54 54">
            <path fill="#8eaa41"
                  d="M654.999 34.922a3.757 3.757 0 0 1-2.85 3.635v5.788c-.004 3.121-2.554 5.651-5.7 5.654h-39.897c-3.147-.003-5.697-2.532-5.7-5.654v-5.788a3.757 3.757 0 0 1-2.85-3.635 3.756 3.756 0 0 1 2.85-3.635v-4.442a3.349 3.349 0 0 1-.62-.1 2.98 2.98 0 0 1-2.014-1.875 3.724 3.724 0 0 1-.212-1.457c.153-2.044 1.891-3.61 3.956-3.568h.07C604.89 8.757 614.962 1 626.5 1c11.539 0 21.61 7.758 24.468 18.846h.07c2.065-.043 3.803 1.524 3.956 3.568a3.74 3.74 0 0 1-.212 1.46 2.98 2.98 0 0 1-2.013 1.872 3.323 3.323 0 0 1-.618.1l-.002 4.442a3.757 3.757 0 0 1 2.85 3.635zm-51.017-15.077h45.036C646.18 9.833 636.985 2.907 626.5 2.885c-10.485.022-19.68 6.948-22.518 16.96zm-1.818 4.799a4.872 4.872 0 0 1 3.017-1.023c.37-.012.74.018 1.103.09a4.65 4.65 0 0 1 3.159 2.271 2.754 2.754 0 0 0 2.004 1.363c.008.002.015.007.023.008.028.003.054.011.082.012.08.008.159.012.238.01h.02a3.035 3.035 0 0 0 .75-.115l.026-.007a2.922 2.922 0 0 0 .684-.303 2.97 2.97 0 0 0 .482-.36c.037-.035.073-.072.109-.11.162-.163.307-.341.431-.534l.002-.003c.039-.06.084-.114.125-.172.082-.12.162-.241.253-.352.069-.084.146-.157.219-.236.071-.076.138-.157.214-.229.074-.069.154-.13.232-.194.083-.07.164-.144.251-.208.072-.052.149-.095.223-.143.101-.066.2-.134.306-.193.065-.035.135-.063.202-.096.12-.059.24-.12.366-.168.06-.023.121-.04.181-.06.138-.048.275-.095.417-.13.06-.014.122-.022.183-.035a4.93 4.93 0 0 1 .435-.076c.074-.008.15-.009.226-.014.111-.007.221-.021.335-.021l.123.001a4.66 4.66 0 0 1 3.995 2.365c.157.246.373.45.628.594a6.186 6.186 0 0 0 2.43.752c.032.003.064.008.095.01.255.03.51.044.767.046 1.54 0 3.427-.524 3.92-1.402a4.66 4.66 0 0 1 3.995-2.365c.041 0 .082.006.123.006l.009-.001.045.003a4.884 4.884 0 0 1 3.321 1.35c.012.011.023.025.034.036a5.071 5.071 0 0 1 .757.93 3.01 3.01 0 0 0 2.17 1.388c.16.029.32.045.481.05h.006a2.772 2.772 0 0 0 2.359-1.397 4.653 4.653 0 0 1 3.159-2.272 4.91 4.91 0 0 1 2.641.207l.003.001c.206.078.406.168.6.272a4.845 4.845 0 0 1 .687.435c.008.007.017.011.025.018.013.01.027.015.04.024.085.064.176.119.272.165.026.012.054.02.08.03.32.136.676.162 1.012.073.352-.092.634-.35.752-.692.084-.234.12-.483.105-.73a2.007 2.007 0 0 0-2.058-1.783h-49.076a2.007 2.007 0 0 0-2.058 1.782c-.015.248.021.495.105.73.117.34.4.601.752.693.488.127 1.008.02 1.403-.291zm35.735 7.45v6.597c0 1.04.851 1.884 1.9 1.884 1.05 0 1.9-.843 1.9-1.884v-6.596c0-.25.1-.49.278-.666a.954.954 0 0 1 .672-.276h7.6l.003-4.655a3.536 3.536 0 0 1-.59-.373 2.964 2.964 0 0 0-.477-.295c-.057-.03-.116-.054-.175-.08a3.05 3.05 0 0 0-.34-.119c-.074-.021-.146-.046-.222-.061a2.967 2.967 0 0 0-.484-.06 2.752 2.752 0 0 0-2.423 1.39 4.7 4.7 0 0 1-4.11 2.362c-.015 0-.03.003-.047.004a4.874 4.874 0 0 1-4.29-2.325 3.098 3.098 0 0 0-.513-.621c-.007-.007-.016-.011-.023-.017a3.036 3.036 0 0 0-1.313-.705c-.072-.018-.149-.018-.222-.03a3.087 3.087 0 0 0-.485-.058 2.753 2.753 0 0 0-2.297 1.39c-1.05 1.87-4.002 2.368-5.579 2.368l-.1-.002-.062.002a10.06 10.06 0 0 1-2.06-.233c-.015-.004-.03-.005-.044-.009-.183-.04-.366-.094-.55-.147-.065-.019-.131-.032-.196-.052v2.326h13.3c.251 0 .493.099.671.276a.937.937 0 0 1 .278.666zm-14.249.944v3.769H636v-3.77zm-5.7-.943v9.423c0 1.042.851 1.886 1.9 1.886 1.05 0 1.9-.844 1.9-1.886V27.856c-.063-.051-.11-.109-.17-.163-.08-.074-.163-.145-.236-.226a3.057 3.057 0 0 1-.423-.566 2.775 2.775 0 0 0-2.383-1.4 3.061 3.061 0 0 0-2.632 1.44 5.165 5.165 0 0 1-.415.564l-.011.016a1.971 1.971 0 0 1-.117.126 8.494 8.494 0 0 1-.222.232c-.036.034-.07.069-.106.102l-.042.04a2.613 2.613 0 0 1-.149.123c-.033.027-.056.04-.087.065a4.73 4.73 0 0 1-.259.196c-.015.011-.033.027-.048.037l-.143.087c-.03.02-.055.032-.083.05-.102.06-.205.118-.31.17l-.047.025c-.05.025-.107.05-.164.074l-.016.006c-.145.063-.292.12-.442.168l-.008.003-.107.033-.01.003a4.726 4.726 0 0 1-.87.181v2.853c0 1.04.851 1.885 1.9 1.885 1.05 0 1.9-.844 1.9-1.885 0-.52.426-.942.95-.942.525 0 .95.422.95.942zm-10.329-5.194a2.721 2.721 0 0 0-1.874-1.343 3.04 3.04 0 0 0-.546-.05 2.962 2.962 0 0 0-1.701.617c-.23.178-.481.326-.749.44v4.588h7.6v-2.087a4.601 4.601 0 0 1-2.73-2.165zm-5.82 9.906h14.25v-1.449a3.757 3.757 0 0 1-2.613.435c-.075-.014-.146-.038-.219-.057a3.874 3.874 0 0 1-.45-.139c-.08-.03-.158-.068-.236-.105a3.74 3.74 0 0 1-.938-.626c-.059-.054-.12-.104-.176-.162a3.702 3.702 0 0 1-.336-.403c-.03-.04-.064-.077-.093-.118a3.774 3.774 0 0 1-.324-.592c-.026-.059-.041-.122-.064-.182a3.75 3.75 0 0 1-.13-.371h-8.674a1.895 1.895 0 0 0-1.897 1.884 1.895 1.895 0 0 0 1.9 1.885zm48.448 7.538v-5.654h-6.65c0 2.082-1.701 3.77-3.8 3.77-2.098 0-3.8-1.688-3.8-3.77H623.65v2.828c0 2.082-1.701 3.77-3.8 3.77-2.098 0-3.8-1.688-3.8-3.77v-2.827l-13.299-.001v5.654c.002 2.08 1.703 3.768 3.8 3.77h39.897c2.098-.002 3.799-1.69 3.801-3.77zm2.85-9.423c0-1.04-.85-1.884-1.9-1.884h-7.6v3.769h7.6c1.05 0 1.9-.844 1.9-1.885zm-30.682-28.93c.37.367.371.96.005 1.328l-1.9 1.885a.955.955 0 0 1-.92.25.947.947 0 0 1-.674-.67.936.936 0 0 1 .25-.912l1.9-1.885a.956.956 0 0 1 1.34.004zm21.46 39.962a.938.938 0 0 1 0-1.332l1.9-1.884a.955.955 0 0 1 1.342 0c.37.368.371.964.002 1.332l-1.9 1.884a.953.953 0 0 1-1.343 0zm-32.86-4.154c.37.366.372.959.005 1.327l-1.9 1.885a.956.956 0 0 1-.92.25.946.946 0 0 1-.674-.67.937.937 0 0 1 .251-.912l1.9-1.885a.955.955 0 0 1 1.339.005zm16.15-28.269c.37.366.371.959.005 1.328l-1.9 1.885a.956.956 0 0 1-.92.248.946.946 0 0 1-.675-.669.937.937 0 0 1 .251-.912l1.9-1.884a.955.955 0 0 1 1.339.004zm5.704-3.774a.937.937 0 0 1-.004 1.328.955.955 0 0 1-1.339.005l-1.9-1.885a.936.936 0 0 1 .005-1.328.955.955 0 0 1 1.338-.004zm-17.099 3.77a.936.936 0 0 1-.004 1.327.955.955 0 0 1-1.34.005l-1.899-1.885a.936.936 0 0 1 .005-1.328.956.956 0 0 1 1.338-.005zm16.15 30.153a.936.936 0 0 1-.005 1.327.956.956 0 0 1-1.339.005l-1.9-1.885a.936.936 0 0 1 .005-1.327.955.955 0 0 1 1.338-.005zm8.549-29.211a.936.936 0 0 1-.005 1.327.956.956 0 0 1-1.338.005l-1.9-1.884a.937.937 0 0 1 .004-1.328.955.955 0 0 1 1.339-.005z"/>
        </symbol>
        <symbol id="icon-five" viewBox="0 0 54 54">
            <path fill="#f2374d"
                  d="M808.377 10.353a1.01 1.01 0 0 1 0-1.424.996.996 0 0 1 1.416 0c.87.875 2.29.875 3.16 0a.997.997 0 0 1 1.417 0 1.01 1.01 0 0 1 0 1.424 4.217 4.217 0 0 1-2.997 1.244 4.213 4.213 0 0 1-2.996-1.244zm10.665 37.966a1.008 1.008 0 0 1-.906 1.433 1 1 0 0 1-.907-.58l-2.768-5.942a1.008 1.008 0 0 1 .483-1.338.999.999 0 0 1 1.332.485zm23.063-5.09l-2.767 5.944a1 1 0 0 1-1.331.484 1.008 1.008 0 0 1-.483-1.338l2.768-5.942a.998.998 0 0 1 1.331-.485c.501.235.716.835.482 1.337zm-8.22 1.839l-.921 5.942a1.004 1.004 0 0 1-1.145.84c-.546-.086-.92-.601-.835-1.151l.922-5.942c.085-.55.598-.921 1.145-.84.545.086.919.601.835 1.15zm-9.224-.311l.922 5.942a1.007 1.007 0 0 1-.99 1.163c-.486 0-.912-.356-.99-.852l-.921-5.942c-.085-.55.289-1.065.835-1.15a1.006 1.006 0 0 1 1.144.839zm2.622-25.144c0-.557.449-1.007 1.002-1.007 4.137 0 8.062-.528 11.349-1.525a1.006 1.006 0 0 1 .58 1.927c-3.473 1.053-7.598 1.61-11.928 1.61-.553 0-1.003-.45-1.003-1.005zm-17.8 7.196a.999.999 0 0 1 1.35-.424c.924.484 1.914.922 2.943 1.3a1.007 1.007 0 0 1-.342 1.95.99.99 0 0 1-.342-.061 26.113 26.113 0 0 1-3.185-1.407 1.01 1.01 0 0 1-.425-1.358zm11.593 3.695a1.007 1.007 0 0 1 1.116-.876 48.63 48.63 0 0 0 12.237-.061 1 1 0 0 1 1.123.868 1.004 1.004 0 0 1-.864 1.127c-2.219.29-4.442.436-6.653.436-2.043 0-4.078-.124-6.087-.372a1.005 1.005 0 0 1-.872-1.122zm18.785-2.014c2.073-.569 3.92-1.28 5.487-2.112a1 1 0 0 1 1.353.421 1.01 1.01 0 0 1-.418 1.361c-1.697.9-3.68 1.665-5.894 2.273a1.002 1.002 0 0 1-1.23-.706 1.008 1.008 0 0 1 .702-1.237zm12.662 5.81l.002.003-4.857 11.975c-3.126 5.779-5.812 7.276-11.645 9.541-2.018.785-4.873 1.177-7.73 1.177s-5.717-.392-7.75-1.176c-5.821-2.243-8.51-3.744-11.698-9.636l-.048-.103-3.78-9.362c-1.284-1.525-1.941-3.156-1.941-4.853 0-2.332 1.253-4.57 3.63-6.502a6.392 6.392 0 0 1-.104-1.134c0-.783.158-1.573.466-2.357-.26-.21-.51-.432-.749-.674-3.923-3.943-4.334-9.947-.915-13.385l.915-.92a7.701 7.701 0 0 1 2.813-1.794 5.528 5.528 0 0 0-1.247-1.393c-1.556-1.22-3.797-1.615-6.658-1.175a1.003 1.003 0 0 1-1.142-.843 1.006 1.006 0 0 1 .838-1.147c3.445-.532 6.211.007 8.222 1.6a7.682 7.682 0 0 1 2.034 2.48c2.883-.306 6.053.778 8.456 3.193.38.382.717.797 1.022 1.23 2.265-.568 4.787-.893 7.37-.92 1.052-.01 1.719-.258 1.982-.738.612-1.112-.499-3.613-1.133-4.65a1.015 1.015 0 0 1-.044-.976c.154-.31.455-.52.798-.554 3.713-.37 6.792.543 9.16 2.713 4.2 3.847 4.816 10.443 4.904 12.494 3.733 2.093 5.78 4.854 5.78 7.817 0 .376-.036.755-.105 1.134 2.378 1.932 3.63 4.17 3.63 6.502 0 .817-.162 1.634-.476 2.434zm-44.788-14.525c.348.35.727.663 1.128.933l.01.003c.356.24.727.44 1.108.608l.048.024a7.187 7.187 0 0 0 1.24.41c.382.09.77.15 1.158.178l.086.004a7.426 7.426 0 0 0 3.58-.673l.055-.026c.362-.171.711-.373 1.046-.605.027-.018.053-.04.08-.059.331-.238.65-.5.945-.796.275-.278.52-.577.744-.886.031-.044.064-.084.094-.128.213-.307.4-.627.563-.957.02-.04.039-.082.058-.123.323-.69.538-1.424.638-2.173l.017-.118a7.48 7.48 0 0 0 .046-1.102c-.001-.048-.005-.096-.007-.143a7.46 7.46 0 0 0-1.031-3.444c-.002-.004-.002-.008-.004-.01a7.463 7.463 0 0 0-1.119-1.455c-1.75-1.76-3.986-2.667-6.079-2.667-.073 0-.143.017-.216.019.125.515.157.858.161.9a1.004 1.004 0 0 1-.998 1.092c-.513 0-.95-.395-.996-.918a5.81 5.81 0 0 0-.146-.714 5.777 5.777 0 0 0-2.209 1.368l-.915.92c-2.638 2.652-2.227 7.38.915 10.538zm-2.655 12.092c0 .45.069.9.205 1.346.032-.02.066-.035.098-.054a4.366 4.366 0 0 1 .687-.33 4.125 4.125 0 0 1 .847-.22c.072-.01.144-.022.217-.03.12-.014.24-.018.363-.022.067-.002.133-.006.204-.007.152.002.308.013.464.028.04.003.08.003.12.008.198.023.4.058.604.103.05.01.102.028.154.04.155.038.31.078.468.127.074.024.15.052.225.079.138.047.275.096.414.152.084.034.17.072.254.11a10.312 10.312 0 0 1 1.073.541l.275.162c.137.084.274.172.412.262.09.06.182.119.273.181.145.1.29.205.435.312.086.064.174.126.26.192.16.121.32.251.48.382.074.062.148.12.225.183.235.198.471.405.708.624.204-.138.415-.253.63-.357.06-.03.121-.056.184-.083.164-.072.33-.135.501-.188.062-.02.122-.04.184-.057a5.593 5.593 0 0 1 1.404-.192c.025 0 .05-.005.075-.005.041 0 .083.007.125.007.183.004.367.016.551.034a7.439 7.439 0 0 1 .931.151h.001a8.682 8.682 0 0 1 .94.281c.182.066.364.136.545.213.07.029.137.056.206.087.24.108.481.223.717.351l.005.002c.235.128.465.265.693.41a12.78 12.78 0 0 1 .703.48c.066.046.132.093.197.142.22.166.436.339.646.519a7.504 7.504 0 0 1 9.14-.002c2.775-2.412 6.485-3.618 9.149-1.798.377-.348.75-.66 1.12-.958.068-.054.136-.11.204-.163.352-.274.7-.525 1.046-.751.071-.047.142-.09.214-.136a12.4 12.4 0 0 1 1.043-.6l.072-.033c.33-.163.653-.298.972-.414.059-.02.118-.045.177-.065.321-.11.636-.19.944-.25.062-.012.123-.021.184-.03.314-.051.621-.083.919-.08.023 0 .045.003.068.003.293.006.575.04.85.098.035.008.07.011.104.02.28.065.547.161.805.281.02.009.042.011.062.021.095-.37.142-.742.142-1.11 0-2.318-1.82-4.157-3.345-5.292a1.01 1.01 0 0 1-.365-1.093 4.46 4.46 0 0 0 .184-1.25c0-2.31-1.857-4.553-5.226-6.316a1.011 1.011 0 0 1-.54-.897c0-.077-.017-7.728-4.27-11.616-1.609-1.47-3.656-2.228-6.098-2.26.637 1.439 1.3 3.62.425 5.216-.637 1.164-1.886 1.761-3.715 1.782-2.224.023-4.405.269-6.38.715.175.421.31.858.422 1.302l.02.082c.18.735.282 1.493.282 2.27 0 .103-.012.205-.015.307-.003.09-.008.18-.013.271a9.492 9.492 0 0 1-.48 2.473c-.02.06-.042.12-.064.181a9.354 9.354 0 0 1-1.345 2.478 9.398 9.398 0 0 1-.84.982c-.201.203-.41.391-.626.571-.088.076-.181.144-.272.216-.123.094-.247.189-.373.278-.125.087-.251.17-.38.252-.086.055-.175.108-.265.16-.159.094-.318.185-.482.269l-.038.018a9.212 9.212 0 0 1-1.977.73l-.06.014a8.867 8.867 0 0 1-.647.13l-.119.018c-.466.07-.938.117-1.419.117-.15 0-.297-.014-.445-.022-.095-.004-.19-.007-.285-.013a10.145 10.145 0 0 1-1.312-.193c-.087-.02-.173-.044-.26-.066a9.247 9.247 0 0 1-1.655-.589c-.075-.033-.149-.062-.222-.099a4.21 4.21 0 0 0-.193 1.24c0 .414.062.834.184 1.25.118.405-.028.843-.365 1.094-1.526 1.135-3.344 2.974-3.344 5.293zm45.052 3.012a2.365 2.365 0 0 0-1.008-.301c-.064-.005-.131 0-.197 0-.118 0-.233-.003-.352.01-.085.009-.171.027-.257.042-.102.017-.203.033-.307.058-.096.023-.19.055-.287.085-.095.03-.19.057-.285.092-.1.038-.2.08-.3.122-.092.039-.183.077-.274.12a8.801 8.801 0 0 0-.566.292 13.566 13.566 0 0 0-1.358.88l-.239.181c-.08.06-.161.122-.238.183l-.241.195-.195.16c-.087.073-.167.142-.247.212l-.141.123-.27.242-.061.057c-.209.191-.374.353-.483.462h-.001l-.706.702-.705-.704a3.236 3.236 0 0 0-.514-.414c-2.21-1.457-5.471.44-7.25 2.22l-.707.706-.706-.706a5.497 5.497 0 0 0-7.766 0l-.703.703-.706-.699c-1.948-1.929-5.651-4-7.867-1.807l-.703.695-.702-.695c-.836-.826-4.885-4.622-7.357-3.22l.386.953v.003l3.814 9.442c2.88 5.307 5.087 6.532 10.629 8.67 3.557 1.371 10.513 1.37 14.04 0 5.554-2.157 7.761-3.381 10.58-8.575z"/>
        </symbol>
        <symbol id="icon-six" viewBox="0 0 54 54">
            <path fill="#4b811b"
                  d="M1016.417 9.515c.989-2.5 3.845-3.74 6.377-2.763a.99.99 0 0 1 .57 1.286 1.01 1.01 0 0 1-1.302.564c-1.497-.579-3.19.155-3.774 1.635-.586 1.48.156 3.156 1.652 3.735a.99.99 0 0 1 .57 1.286 1.008 1.008 0 0 1-1.302.564c-2.527-.977-3.78-3.806-2.791-6.307zm33.387 9.948a4.789 4.789 0 0 1 .076 3.726 4.863 4.863 0 0 1-2.61 2.688 4.968 4.968 0 0 1-1.974.412 4.975 4.975 0 0 1-1.793-.336 4.87 4.87 0 0 1-2.717-2.582.99.99 0 0 1 .517-1.308c.511-.219 1.101.01 1.323.512a2.881 2.881 0 0 0 1.609 1.528c.726.28 1.517.264 2.23-.045a2.876 2.876 0 0 0 1.544-1.59 2.83 2.83 0 0 0-.045-2.206.99.99 0 0 1 .517-1.308 1.01 1.01 0 0 1 1.323.51zm-13.98-2.89a4.79 4.79 0 0 1 .457 3.699 4.848 4.848 0 0 1-2.321 2.936 4.94 4.94 0 0 1-2.413.628c-1.718 0-3.39-.89-4.293-2.473a.989.989 0 0 1 .38-1.354 1.01 1.01 0 0 1 1.367.376 2.896 2.896 0 0 0 1.757 1.36 2.926 2.926 0 0 0 2.214-.268 2.872 2.872 0 0 0 1.374-1.739c.208-.74.112-1.52-.27-2.189a.988.988 0 0 1 .379-1.353 1.01 1.01 0 0 1 1.369.377zm-12.226-5.088a1.01 1.01 0 0 1 1.341-.462c.5.24.708.833.467 1.327a2.872 2.872 0 0 0 1.354 3.85c1.446.69 3.192.093 3.892-1.339.241-.493.84-.701 1.342-.461.499.24.708.833.467 1.327-.85 1.735-2.61 2.747-4.439 2.747a4.939 4.939 0 0 1-2.137-.486c-2.443-1.17-3.468-4.087-2.287-6.503zm-7.72 5.745c.221-.501.809-.732 1.322-.513.508.22.741.806.518 1.308a2.874 2.874 0 0 0 1.503 3.796c.715.31 1.507.323 2.23.042a2.884 2.884 0 0 0 1.608-1.53c.221-.5.81-.731 1.322-.512.508.22.741.806.518 1.308a4.858 4.858 0 0 1-2.714 2.584 4.952 4.952 0 0 1-3.767-.073c-2.485-1.075-3.625-3.952-2.54-6.41zm11.875-5.79a.986.986 0 0 1 .136-1.398c.43-.35 1.06-.288 1.413.134a2.902 2.902 0 0 0 1.97 1.035 2.887 2.887 0 0 0 2.133-.646 2.863 2.863 0 0 0 .393-4.058.986.986 0 0 1 .136-1.398c.43-.35 1.06-.288 1.414.134a4.839 4.839 0 0 1-.664 6.854 4.919 4.919 0 0 1-3.603 1.091 4.905 4.905 0 0 1-3.328-1.748zm-21.823 13.756c-.615 0-1.24-.114-1.845-.357-2.514-1.009-3.73-3.854-2.71-6.342a1.009 1.009 0 0 1 1.309-.548.991.991 0 0 1 .553 1.295c-.604 1.473.116 3.157 1.605 3.755 1.492.598 3.192-.116 3.795-1.588a1.01 1.01 0 0 1 1.309-.547.99.99 0 0 1 .553 1.294c-.776 1.89-2.623 3.038-4.569 3.038zm48.065-2.289c0 1.393-.556 2.7-1.567 3.683a5.314 5.314 0 0 1-1.875 1.178 4.566 4.566 0 0 1-1.388 3.578 4.833 4.833 0 0 1-3.334 1.348 5.442 5.442 0 0 1-.95 1.23 5.677 5.677 0 0 1-3.965 1.592 5.732 5.732 0 0 1-2.694-.696c-4.276.194-7.142 6.666-8.518 19.274l-.076.697a2.51 2.51 0 0 1-2.504 2.214h-5.02c-1.314 0-2.416-1.013-2.507-2.307-.74-10.484-6.36-19.468-10.489-19.582-.39.113-.788.188-1.192.188a4.22 4.22 0 0 1-2.947-1.184 4.033 4.033 0 0 1-1.212-2.567 5.659 5.659 0 0 1-3.886-1.595 5.416 5.416 0 0 1-1.649-3.852 4.715 4.715 0 0 1-1.82-1.102 4.553 4.553 0 0 1 0-6.57 4.729 4.729 0 0 1 1.697-1.059 5.131 5.131 0 0 1 1.566-3.697c1.422-1.382 3.509-1.849 5.384-1.266 1.496-1.393 3.656-1.788 5.548-1.092a6.765 6.765 0 0 1 2.59-2.134v-.04c0-3.664 3.06-6.646 6.822-6.646a6.91 6.91 0 0 1 3.04.699 6.107 6.107 0 0 1 4.716-2.207 6.14 6.14 0 0 1 4.388 1.845 7.273 7.273 0 0 1 2.205-.338c3.976 0 7.212 3.15 7.212 7.023 0 .087-.02.172-.023.26 1.63-.49 3.473-.13 4.761 1.121a4.57 4.57 0 0 1 1.095 1.656 5.36 5.36 0 0 1 3.8 1.514 5.108 5.108 0 0 1 1.317 5.247 5.092 5.092 0 0 1 1.475 3.587zm-42.153-9.84c-.018.032-.03.066-.046.099a4.693 4.693 0 0 0-.217.51c-.02.057-.037.113-.055.17-.05.162-.09.327-.122.494-.01.056-.023.111-.031.168-.033.22-.054.442-.054.668 0 1.528.777 2.961 2.08 3.834a.989.989 0 0 1 .243 1.415 3.797 3.797 0 0 0-.772 2.29c0 2.155 1.81 3.907 4.038 3.907.268 0 .537-.03.805-.087l.027-.007a4.3 4.3 0 0 0 .795-.257c.007-.003.014-.002.02-.005a4.13 4.13 0 0 0 .833-.474 1.005 1.005 0 0 1 .756-.194c.268.039.508.184.667.4a5.175 5.175 0 0 0 1.977 1.617c.181.087.366.16.553.225l.045.014c.172.058.347.108.524.147.031.007.064.011.095.017.163.033.327.061.49.08.049.004.098.004.146.008.15.012.3.023.45.022.2-.001.4-.014.595-.036.114-.014.225-.039.338-.06.09-.016.179-.028.266-.049.128-.03.254-.071.38-.11.066-.022.134-.04.2-.065.132-.048.262-.105.392-.165a5.155 5.155 0 0 0 2.19-1.87.985.985 0 0 1 .86-.454c.347.007.666.19.845.485a3.25 3.25 0 0 0 1.62 1.346h.002c.175.067.353.115.532.152.037.007.074.016.113.022.182.031.365.051.55.051 1.8 0 3.262-1.414 3.262-3.153 0-.37-.07-.742-.21-1.102a.99.99 0 0 1 .552-1.272c1.207-.497 1.986-1.636 1.986-2.903 0-.59-.174-1.168-.5-1.67a.99.99 0 0 1 .374-1.416c.555-.292.901-.842.901-1.437 0-.591-.326-1.123-.873-1.422a.98.98 0 0 1-.295-.245c-.058-.07-.093-.154-.129-.237-.013-.03-.037-.056-.047-.087a.973.973 0 0 1-.038-.305c0-.021-.008-.04-.007-.06.006-.086.039-.169.067-.252.013-.04.013-.078.031-.116l.002-.005.004-.01.076-.181.004-.007c.28-.63.43-1.293.43-1.974 0-2.777-2.335-5.037-5.202-5.037-.73 0-1.44.147-2.113.437a1.01 1.01 0 0 1-1.21-.32 4.093 4.093 0 0 0-3.271-1.625c-1.472 0-2.83.778-3.54 2.03a.998.998 0 0 1-.648.482 1.018 1.018 0 0 1-.798-.15 4.894 4.894 0 0 0-2.77-.854c-2.655 0-4.814 2.091-4.814 4.66 0 .194.016.38.039.567a.993.993 0 0 1-.675 1.064 4.764 4.764 0 0 0-2.718 2.291zm17.27 21.078c.917-1.63 2.028-3.31 3.27-4.742a4.096 4.096 0 0 1-.534-.436c-.04-.04-.067-.074-.096-.11a5.3 5.3 0 0 1-1.451-.956c-.421.438-.898.81-1.41 1.125.167 1.47.282 3.208.22 5.119zm-7.625-4.956a7.227 7.227 0 0 1-1.693-1.3c-.138.074-.282.133-.425.195-.23.167-.46.33-.689.453a2.912 2.912 0 0 1-1.757 2.6 30.029 30.029 0 0 1 5.45 8.342c.057-3.168-.085-7.197-.886-10.29zm-12.814 3.994c.004-.001.006-.004.01-.006a2.072 2.072 0 0 0 1.21-1.091 1.008 1.008 0 0 1 1.282-.508 2.22 2.22 0 0 0 2.36-.463 2.032 2.032 0 0 0 .574-1.012.994.994 0 0 1 .472-.636c.238-.138.524-.173.791-.095.367.107.758.017 1.02-.239a.93.93 0 0 0 .274-.533c-.064-.003-.127-.013-.191-.017a5.324 5.324 0 0 1-.294-.026c-.103-.012-.203-.029-.304-.046a4.977 4.977 0 0 1-.286-.052c-.098-.022-.194-.048-.292-.073a7.094 7.094 0 0 1-.275-.079c-.095-.03-.189-.066-.282-.1-.089-.033-.177-.066-.263-.103-.09-.038-.18-.082-.267-.125-.085-.042-.17-.082-.251-.127-.086-.047-.168-.098-.25-.148-.08-.049-.161-.096-.238-.149-.08-.055-.157-.113-.235-.17-.074-.056-.15-.11-.22-.17-.075-.06-.146-.127-.217-.191-.069-.063-.139-.123-.204-.188-.07-.069-.134-.141-.199-.213-.062-.067-.125-.133-.184-.203-.063-.077-.12-.156-.18-.235-.054-.071-.109-.142-.16-.216-.055-.083-.106-.168-.158-.254-.046-.076-.095-.15-.138-.228-.05-.088-.092-.181-.136-.272-.038-.08-.08-.156-.114-.238-.042-.096-.076-.196-.112-.296-.03-.08-.061-.156-.087-.238-.034-.106-.06-.217-.087-.327-.019-.077-.043-.152-.059-.23-.026-.123-.042-.25-.06-.375-.01-.068-.023-.135-.03-.203a5.713 5.713 0 0 1 .618-3.245 6.574 6.574 0 0 1-2.202-4.888c0-.343.031-.68.084-1.012.014-.088.04-.174.058-.261.049-.244.104-.485.18-.72.01-.028.013-.059.023-.088a3.374 3.374 0 0 0-3.278.812 3.3 3.3 0 0 0-.267.298c-.293.36-.801.473-1.218.275-1.28-.607-2.815-.36-3.818.616a3.15 3.15 0 0 0-.91 2.846.98.98 0 0 1-.168.757c-.157.219-.397.366-.666.407a2.755 2.755 0 0 0-1.519.746 2.585 2.585 0 0 0-.002 3.736c.433.42.987.683 1.603.758.273.033.52.175.684.393a.983.983 0 0 1 .184.76 3.424 3.424 0 0 0 .997 3.043 3.675 3.675 0 0 0 3.357.938 1.011 1.011 0 0 1 .942.283c.242.25.334.608.245.943-.195.724.013 1.47.555 1.998.62.601 1.521.76 2.297.48zm27.633-.002a5.267 5.267 0 0 1-.364-.586 3.073 3.073 0 0 1-.565-.065 2.98 2.98 0 0 1-.4-.122c-.046-.017-.095-.024-.141-.044-.09-.036-.173-.09-.26-.136-.081-.043-.165-.077-.243-.128-.005-.004-.009-.009-.014-.011a3.018 3.018 0 0 1-.431-.345c-.004-.004-.006-.01-.01-.013a2.937 2.937 0 0 1-.386-.472c-.011-.017-.027-.03-.037-.045-3.175 3.948-5.366 9.788-5.39 9.853-.185.5-.738.768-1.25.602a.99.99 0 0 1-.659-1.213c1.093-3.845 1.086-7.706.81-10.593-.052.015-.106.021-.158.034a6.987 6.987 0 0 1-1.25.194 9.868 9.868 0 0 1-.34.017c-.056 0-.11.008-.166.008-.097 0-.191-.011-.287-.015-.11-.005-.22-.008-.329-.017a7.52 7.52 0 0 1-.485-.061c-.071-.011-.144-.015-.216-.027 1.21 6.192.409 14.418.37 14.798a1.007 1.007 0 0 1-1.973.143c-1.606-6.352-4.949-10.626-6.913-12.701a4.138 4.138 0 0 1-.66.626c-.022.017-.047.03-.07.047-.11.08-.222.159-.34.227-.048.028-.1.05-.148.077-.096.05-.19.102-.287.146-.06.027-.124.046-.185.07-.09.035-.18.072-.272.1-.066.022-.132.034-.198.052-.093.023-.184.048-.277.066-.068.013-.135.019-.202.028-.095.013-.189.028-.284.035-.068.005-.136.003-.204.005-.096.002-.191.005-.287 0-.07-.002-.14-.011-.21-.018-.078-.007-.155-.01-.232-.021 4.917 2.299 9.566 11.366 10.236 20.884a.5.5 0 0 0 .502.458h5.021a.51.51 0 0 0 .509-.45l.075-.687c.517-4.743 1.996-18.306 8.6-20.7zm15.68-10.276a3.14 3.14 0 0 0-1.271-2.523.984.984 0 0 1-.288-1.228 3.137 3.137 0 0 0-.631-3.666 3.399 3.399 0 0 0-2.963-.891 1.017 1.017 0 0 1-.759-.167.988.988 0 0 1-.41-.654 2.598 2.598 0 0 0-.763-1.459c-.95-.924-2.436-1.03-3.508-.311.058.062.101.135.154.201.06.076.122.15.176.229a3.5 3.5 0 0 1 .215.373c.041.08.086.156.122.239.06.146.105.298.147.45.02.074.048.142.063.217a3.5 3.5 0 0 1 .076.704c0 .25-.027.497-.079.736a3.605 3.605 0 0 1-1.076 1.88c.249.606.378 1.251.378 1.908 0 1.773-.926 3.39-2.42 4.325.063.314.094.631.094.951 0 .334-.04.658-.102.974-.02.105-.056.2-.083.302a5.046 5.046 0 0 1-.195.61c-.045.113-.101.218-.154.327a5.062 5.062 0 0 1-.285.51 5.035 5.035 0 0 1-.585.743c-.084.09-.169.179-.26.263a5.475 5.475 0 0 1-.465.374c-.094.069-.184.14-.283.204-.194.121-.4.225-.61.322-.08.037-.154.084-.237.118a5.329 5.329 0 0 1-.9.278.932.932 0 0 1-.03.127.94.94 0 0 0 .043.654c.01.022.016.046.027.067a.92.92 0 0 0 .17.23c.038.035.082.06.123.09.215.15.48.213.751.173.042-.007.085-.007.128-.018h.005a1.01 1.01 0 0 1 .263-.035c.02 0 .042.01.063.01.042.003.08.01.12.019a1.002 1.002 0 0 1 .51.262c.024.023.05.042.07.067.076.089.14.187.183.303a3.433 3.433 0 0 0 1.444 1.777l.003.002c1.4.878 3.291.723 4.515-.467.357-.345.628-.752.81-1.212a1.01 1.01 0 0 1 1.09-.619 2.837 2.837 0 0 0 2.385-.745c.7-.68.964-1.677.69-2.601a.98.98 0 0 1 .11-.807c.153-.241.401-.406.683-.454a3.337 3.337 0 0 0 1.78-.895c.622-.606.966-1.41.967-2.267z"/>
        </symbol>

</svg>