<svg xmlns="http://www.w3.org/2000/svg" width="52" height="52" viewBox="0 0 52 52"><g><g><path fill="#ff6262" d="M50.63 32.144C48.673 40.3 43.724 46.083 35.924 49.33 30.569 51.56 25.178 52 21.753 52c-1.371 0-2.428-.071-3.04-.126l-.29-.026c-1.835-.163-3.733-.332-5.565-.942-8.48-2.82-11.785-9.87-11.921-10.168l-.036-.09c-1.906-5.518-.75-8.602.557-10.216 1.706-2.107 4.597-2.957 8.365-2.46 2.362.306 4.632-.605 6.065-2.454 1.432-1.845 1.764-4.275.89-6.5-2.82-7.175-.551-12.878 6.385-16.06C28.711.414 33.713 0 38.03 1.728c5.885 2.357 9.303 8.265 11.136 12.808 2.335 5.787 2.842 11.877 1.465 17.608zm-3.306-16.857c-1.688-4.182-4.796-9.606-10.029-11.701-3.793-1.518-8.27-1.118-13.308 1.192-5.999 2.75-7.803 7.294-5.363 13.505 1.136 2.891.7 6.056-1.17 8.466-1.87 2.413-4.815 3.614-7.892 3.205-3.045-.4-5.315.2-6.563 1.74-1.388 1.717-1.473 4.642-.239 8.244.264.54 3.394 6.632 10.723 9.07 1.613.537 3.314.688 5.115.849l.292.026c2.03.18 9.193.546 16.273-2.4 7.181-2.989 11.735-8.307 13.536-15.81 1.279-5.323.804-10.988-1.375-16.386zm-19.154-1.07c0-2.756 2.228-4.998 4.967-4.998 2.74 0 4.968 2.242 4.968 4.998 0 2.757-2.229 4.999-4.968 4.999s-4.967-2.242-4.967-4.999zm1.987 0c0 1.654 1.337 3 2.98 3s2.98-1.346 2.98-3c0-1.653-1.337-2.999-2.98-2.999s-2.98 1.346-2.98 3zm17.22 10.638a23.513 23.513 0 0 1-.61 6.36c-1.213 5.052-6.061 16.801-24.829 16.801-.941 0-1.845-.038-2.688-.114l-.281-.025c-1.663-.148-3.236-.288-4.675-.766-6.335-2.11-9.13-7.071-9.625-8.045l-.058-.137c-.978-2.916-.987-5.272-.026-6.632.906-1.285 2.87-1.808 5.488-1.456 3.515.467 6.914-1.054 8.878-3.96 1.735-2.564 2.069-5.72.915-8.658-3.168-8.063 2.69-10.75 4.615-11.634 9.617-4.406 16.7-1.154 21.014 9.532a25.882 25.882 0 0 1 1.874 8.55c.007.062.014.12.008.184zm-25.664-7.367c.92 2.342 1.043 4.796.432 7.092.755.965 3.507 3.69 9.45 1.79 1.315-.682 9.196-4.61 13.646-3.347a24.26 24.26 0 0 0-1.587-6.15c-2.733-6.77-6.589-10.204-11.46-10.204-2.054 0-4.372.585-6.889 1.74-2.999 1.375-5.77 3.53-3.592 9.08zM17.5 31.057c.498.99 1.624 2.75 3.635 3.597 2.08.877 4.636.598 7.598-.83 8.66-4.18 13.908-3.566 16.072-2.953l.032-.125c.429-1.79.612-3.63.57-5.487-2.276-1.617-9.058.874-12.971 2.924a.945.945 0 0 1-.153.065c-1.693.55-3.186.772-4.492.772-3.182 0-5.25-1.313-6.41-2.384-.231.468-.487.928-.786 1.37a11.173 11.173 0 0 1-3.095 3.051zm4.438 14.96c.884 0 1.724-.034 2.542-.087-.063-1.456-1.445-2.736-3.49-4.155-2.856-1.984-4.785-5.115-5.292-8.592-.057-.397-.12-.765-.18-1.09a11.26 11.26 0 0 1-5.704.73c-1.782-.238-3.176.018-3.608.63-.433.615-.588 2.185.264 4.764.398.758 2.917 5.153 8.447 6.995 1.221.406 2.682.536 4.229.673l.282.025c.783.07 1.628.106 2.51.107zm22.286-13.229c-1.739-.477-6.495-1.09-14.63 2.837-3.509 1.694-6.62 1.983-9.252.863a8.34 8.34 0 0 1-2.065-1.265 10.65 10.65 0 0 0 3.842 4.906c1.53 1.062 4.188 2.913 4.348 5.622 11.69-1.438 16.105-8.388 17.757-12.963z"/></g></g></svg>