<svg xmlns="http://www.w3.org/2000/svg" width="57" height="49" viewBox="0 0 57 49"><g><g><path fill="#8eaa41" d="M56.999 33.922a3.757 3.757 0 0 1-2.85 3.635v5.788c-.004 3.121-2.554 5.651-5.7 5.654H8.551c-3.147-.003-5.697-2.532-5.7-5.654v-5.788a3.757 3.757 0 0 1-2.85-3.635 3.756 3.756 0 0 1 2.85-3.635v-4.442a3.349 3.349 0 0 1-.62-.1A2.98 2.98 0 0 1 .217 23.87a3.724 3.724 0 0 1-.212-1.457c.153-2.044 1.891-3.61 3.956-3.568h.07C6.89 7.757 16.962 0 28.5 0c11.539 0 21.61 7.758 24.468 18.846h.07c2.065-.043 3.803 1.524 3.956 3.568a3.74 3.74 0 0 1-.212 1.46 2.98 2.98 0 0 1-2.013 1.872 3.323 3.323 0 0 1-.618.1l-.002 4.442A3.757 3.757 0 0 1 57 33.922zM5.982 18.845h45.036C48.18 8.833 38.985 1.907 28.5 1.885c-10.485.022-19.68 6.948-22.518 16.96zm-1.818 4.799a4.872 4.872 0 0 1 3.017-1.023c.37-.012.74.018 1.103.09a4.65 4.65 0 0 1 3.159 2.271 2.754 2.754 0 0 0 2.004 1.363c.008.002.015.007.023.008.028.003.054.011.082.012.08.008.159.012.238.01h.02a3.035 3.035 0 0 0 .75-.115l.025-.007a2.922 2.922 0 0 0 .685-.303 2.97 2.97 0 0 0 .482-.36c.037-.035.073-.072.109-.11.162-.163.307-.341.431-.534l.002-.003c.039-.06.084-.114.125-.172.082-.12.162-.241.253-.352.069-.084.146-.157.219-.236.071-.076.138-.157.214-.229.074-.069.154-.13.232-.194.083-.07.164-.144.251-.208.072-.052.149-.095.223-.143.101-.066.2-.134.306-.193.065-.035.135-.063.202-.096.12-.059.24-.12.366-.168.06-.023.121-.04.181-.06.138-.048.275-.095.417-.13.06-.014.122-.022.183-.035a4.93 4.93 0 0 1 .435-.076c.074-.008.15-.009.226-.014.111-.007.221-.021.335-.021l.123.001a4.66 4.66 0 0 1 3.995 2.365c.157.246.373.45.628.594a6.186 6.186 0 0 0 2.43.752c.032.003.064.008.095.01.255.03.51.044.767.046 1.54 0 3.427-.524 3.92-1.402a4.66 4.66 0 0 1 3.995-2.365c.041 0 .082.006.123.006l.009-.001.045.003a4.884 4.884 0 0 1 3.321 1.35c.012.011.022.025.034.036a5.071 5.071 0 0 1 .757.93 3.01 3.01 0 0 0 2.17 1.388c.16.029.32.045.481.05h.006a2.772 2.772 0 0 0 2.359-1.397 4.653 4.653 0 0 1 3.159-2.272 4.91 4.91 0 0 1 2.641.207l.003.001c.206.078.406.168.6.272a4.845 4.845 0 0 1 .687.435c.008.007.017.011.025.018.013.01.027.015.04.024.085.064.176.119.272.165.026.012.054.02.08.03.32.136.676.162 1.012.073.352-.092.634-.35.752-.692.084-.234.12-.483.105-.73a2.007 2.007 0 0 0-2.058-1.783H3.962a2.007 2.007 0 0 0-2.058 1.782c-.015.248.021.495.105.73.117.34.4.601.752.693.488.127 1.008.02 1.403-.291zm35.735 7.45v6.597c0 1.04.851 1.884 1.9 1.884 1.05 0 1.9-.843 1.9-1.884v-6.596c0-.25.1-.49.278-.666a.954.954 0 0 1 .672-.276h7.6l.003-4.655a3.536 3.536 0 0 1-.59-.373 2.964 2.964 0 0 0-.477-.295c-.057-.03-.116-.054-.175-.08a3.05 3.05 0 0 0-.34-.119c-.074-.021-.146-.046-.222-.061a2.967 2.967 0 0 0-.484-.06 2.752 2.752 0 0 0-2.423 1.39 4.7 4.7 0 0 1-4.11 2.362c-.015 0-.03.003-.047.004a4.874 4.874 0 0 1-4.29-2.325 3.098 3.098 0 0 0-.513-.621c-.007-.007-.016-.011-.023-.017a3.036 3.036 0 0 0-1.313-.705c-.072-.018-.149-.018-.222-.03a3.087 3.087 0 0 0-.485-.058 2.753 2.753 0 0 0-2.297 1.39c-1.05 1.87-4.002 2.368-5.579 2.368l-.1-.002-.062.002a10.06 10.06 0 0 1-2.06-.233c-.015-.004-.03-.005-.044-.009-.183-.04-.366-.094-.55-.147-.065-.019-.131-.032-.196-.052v2.326h13.3c.251 0 .493.099.671.276a.937.937 0 0 1 .278.666zm-14.249.944v3.769H38v-3.77zm-5.7-.943v9.423c0 1.042.851 1.886 1.9 1.886 1.05 0 1.9-.844 1.9-1.886V26.856c-.063-.051-.11-.109-.17-.163-.08-.074-.163-.145-.236-.226a3.057 3.057 0 0 1-.423-.566 2.775 2.775 0 0 0-2.383-1.4 3.061 3.061 0 0 0-2.632 1.44 5.165 5.165 0 0 1-.415.564l-.011.016a1.971 1.971 0 0 1-.117.126 8.494 8.494 0 0 1-.222.232c-.036.034-.07.069-.106.102l-.042.04a2.613 2.613 0 0 1-.149.123c-.033.027-.056.04-.087.065a4.73 4.73 0 0 1-.259.196c-.015.011-.033.027-.048.037l-.143.087c-.03.02-.055.032-.083.05-.102.06-.205.118-.31.17l-.047.025c-.05.025-.107.05-.164.074l-.016.006c-.145.063-.292.12-.442.168l-.008.003-.107.033-.01.003a4.726 4.726 0 0 1-.87.181v2.853c0 1.04.851 1.885 1.9 1.885 1.05 0 1.9-.844 1.9-1.885 0-.52.426-.942.95-.942.525 0 .95.422.95.942zM9.621 25.901a2.721 2.721 0 0 0-1.874-1.343 3.04 3.04 0 0 0-.546-.05 2.962 2.962 0 0 0-1.701.617c-.23.178-.481.326-.749.44v4.588h7.6v-2.087A4.601 4.601 0 0 1 9.62 25.9zm-5.82 9.906h14.25v-1.449a3.757 3.757 0 0 1-2.613.435c-.075-.014-.146-.038-.22-.057a3.874 3.874 0 0 1-.449-.139c-.08-.03-.158-.068-.236-.105a3.74 3.74 0 0 1-.938-.626c-.059-.054-.12-.104-.176-.162a3.702 3.702 0 0 1-.336-.403c-.03-.04-.064-.077-.093-.118a3.774 3.774 0 0 1-.324-.592c-.026-.059-.041-.122-.064-.182a3.75 3.75 0 0 1-.13-.371H3.797A1.895 1.895 0 0 0 1.9 33.922a1.895 1.895 0 0 0 1.9 1.885zm48.448 7.538v-5.654h-6.65c0 2.082-1.701 3.77-3.8 3.77-2.098 0-3.8-1.688-3.8-3.77H25.65v2.828c0 2.082-1.701 3.77-3.8 3.77-2.098 0-3.8-1.688-3.8-3.77v-2.827l-13.299-.001v5.654c.002 2.08 1.703 3.768 3.8 3.77h39.897c2.098-.002 3.799-1.69 3.801-3.77zm2.85-9.423c0-1.04-.85-1.884-1.9-1.884h-7.6v3.769h7.6c1.05 0 1.9-.844 1.9-1.885zM24.417 4.992c.37.367.371.96.005 1.328l-1.9 1.885a.955.955 0 0 1-.92.25.947.947 0 0 1-.674-.67.936.936 0 0 1 .25-.912l1.9-1.885a.956.956 0 0 1 1.34.004zm21.46 39.962a.938.938 0 0 1 0-1.332l1.9-1.884a.955.955 0 0 1 1.342 0c.37.368.371.964.002 1.332l-1.9 1.884a.953.953 0 0 1-1.343 0zM13.018 40.8c.37.366.372.959.005 1.327l-1.9 1.885a.956.956 0 0 1-.92.25.946.946 0 0 1-.674-.67.937.937 0 0 1 .251-.912l1.9-1.885a.955.955 0 0 1 1.339.005zm16.15-28.269c.37.366.371.959.005 1.328l-1.9 1.885a.956.956 0 0 1-.92.248.946.946 0 0 1-.675-.669.937.937 0 0 1 .251-.912l1.9-1.884a.955.955 0 0 1 1.339.004zm5.704-3.774a.937.937 0 0 1-.004 1.328.955.955 0 0 1-1.339.005l-1.9-1.885a.936.936 0 0 1 .005-1.328.955.955 0 0 1 1.339-.004zm-17.099 3.77a.936.936 0 0 1-.004 1.327.955.955 0 0 1-1.34.005l-1.899-1.885a.936.936 0 0 1 .005-1.328.956.956 0 0 1 1.338-.005zm16.15 30.153a.936.936 0 0 1-.005 1.327.956.956 0 0 1-1.339.005l-1.9-1.885a.936.936 0 0 1 .005-1.327.955.955 0 0 1 1.338-.005zm8.55-29.211a.936.936 0 0 1-.006 1.327.956.956 0 0 1-1.338.005l-1.9-1.884a.937.937 0 0 1 .004-1.328.955.955 0 0 1 1.339-.005z"/></g></g></svg>