<svg xmlns="http://www.w3.org/2000/svg" width="59" height="53" viewBox="0 0 59 53"><g><g><path fill="#ffc243" d="M36.752 18.22a1 1 0 0 1 1.002.997 1 1 0 0 1-1.002.996 1 1 0 0 1-1.003-.996 1 1 0 0 1 1.003-.997zm5.232-2.64a1 1 0 0 1 1.003.998 1 1 0 0 1-1.003.996 1 1 0 0 1-1.002-.996 1 1 0 0 1 1.002-.997zM40.67 18.09a1 1 0 0 1 1.003.996 1 1 0 0 1-1.003.997 1 1 0 0 1-1.003-.997 1 1 0 0 1 1.003-.996zm-26.23-4.62a1 1 0 0 1 1.004.996 1 1 0 0 1-1.003.998 1 1 0 0 1-1.003-.998 1 1 0 0 1 1.003-.996zm5.85-1.32a1 1 0 0 1 1.002.997 1 1 0 0 1-1.002.996 1 1 0 0 1-1.003-.996 1 1 0 0 1 1.003-.996zm-3.233-.997a1 1 0 0 1 1.003.998 1 1 0 0 1-1.003.996 1 1 0 0 1-1.003-.996 1 1 0 0 1 1.003-.998zM12.183 29.48a1 1 0 0 1 1.003.996 1 1 0 0 1-1.003.997 1 1 0 0 1-1.003-.997 1 1 0 0 1 1.003-.996zm3.26-2.317a1 1 0 0 1 1.003.997 1 1 0 0 1-1.003.997 1 1 0 0 1-1.003-.997 1 1 0 0 1 1.003-.997zm1.613 1.994a1 1 0 0 1 1.003.997 1 1 0 0 1-1.003.996 1 1 0 0 1-1.003-.996 1 1 0 0 1 1.003-.997zm8.159-20.722a.996.996 0 0 1 .778-1.178 2.736 2.736 0 0 1 1.996.345 2.53 2.53 0 0 1 1.167 1.648c.066.32.421.523.792.444a2.726 2.726 0 0 1 1.995.346c.61.375 1.024.961 1.167 1.648.04.196.18.308.259.356a.723.723 0 0 0 .531.087.996.996 0 1 1 .407 1.953 2.82 2.82 0 0 1-.567.058c-.503 0-.996-.137-1.427-.403a2.525 2.525 0 0 1-1.166-1.647.56.56 0 0 0-.26-.357.71.71 0 0 0-.532-.087c-1.456.292-2.872-.6-3.162-1.994a.558.558 0 0 0-.26-.357.706.706 0 0 0-.531-.087 1.005 1.005 0 0 1-1.187-.775zm6.178 15.859c.026 1.203-.904 2.202-2.074 2.228-.047.001-.114.076-.111.192.026 1.203-.905 2.202-2.074 2.228-.074.001-.113.117-.112.19a1 1 0 0 1-.98 1.02h-.023a1 1 0 0 1-1.002-.975 2.206 2.206 0 0 1 .565-1.535 2.084 2.084 0 0 1 1.508-.694c.048-.001.115-.076.112-.192-.026-1.204.904-2.202 2.073-2.228.048 0 .116-.076.112-.192a1.001 1.001 0 0 1 .982-1.018c.581.03 1.012.426 1.024.976zm-6.769-6.029a2.558 2.558 0 0 1 2.028.01.576.576 0 0 0 .443-.002c.166-.07.3-.205.379-.381a1.003 1.003 0 0 1 1.322-.511c.507.22.737.81.514 1.312a2.716 2.716 0 0 1-1.44 1.417c-.66.276-1.38.271-2.027-.011a.572.572 0 0 0-.443.003.73.73 0 0 0-.379.38c-.599 1.35-2.154 1.982-3.468 1.405a.574.574 0 0 0-.443.003.729.729 0 0 0-.38.38 1.004 1.004 0 0 1-1.321.512.993.993 0 0 1-.514-1.312 2.714 2.714 0 0 1 1.44-1.417 2.557 2.557 0 0 1 2.026.01c.301.132.671-.039.824-.383a2.707 2.707 0 0 1 1.439-1.415zm33.205 6.581c-1.527 3.114-4.507 4.142-4.632 4.184l-18.833 7.59-.01.024a4.473 4.473 0 0 1-.342.797c-.137.245-.286.48-.467.689-.475.552-1.11.955-1.843 1.203a5.103 5.103 0 0 1-.655.17c-.045.01-.09.017-.135.025a5.54 5.54 0 0 1-.55.065c-.05.003-.1.01-.15.012-.22.01-.444.01-.673-.004a3.963 3.963 0 0 1-.79-.134c-.034-.01-.066-.026-.1-.038a3.606 3.606 0 0 1-.621-.248c-.003-.002-.007-.002-.01-.005l-16.443 6.625c1.272 1.833 1.603 3.428.975 4.736-1.034 2.148-4.163 2.416-4.517 2.438-.064.007-.281.027-.596.027-.897 0-2.59-.163-3.793-1.258-.85-.771-1.286-1.877-1.262-3.196.05-2.739.707-7.24 1.095-9.68.05-.318-.292-.491-.502-.544-1.148-.286-1.992-1.351-2.508-3.163-1.463-5.139 2.39-8.275 4.216-9.432L6.189 6.597c.004-.051.02-.098.024-.15v-.003a5.634 5.634 0 0 1 4.757-5.02C13.938.962 17.849.475 22.147.25c.022 0 .04-.012.061-.012.013 0 .023.007.036.007 4.792-.248 10.057-.165 15.062.645a.983.983 0 0 1 .395.054c.006.001.01.006.015.009 2.436.414 4.804 1.004 7.015 1.816.024.007.049.003.073.01.035.013.058.04.09.056 5.18 1.936 9.472 5.12 11.768 10.129.021.045.05.087.064.134.43.964.785 1.999 1.062 3.1.008.02.023.032.03.05 1.176 3.324 1.18 6.216.01 8.6zm-2.152-4.83c.4-.742.553-1.62.377-2.496a17.2 17.2 0 0 0-.7-2.486l-1.188 1.01c.41.735.79 1.482 1.139 2.242a3.86 3.86 0 0 1 .372 1.73zM51.73 9.338l-1.221 1.761c1 1.01 1.857 2.089 2.606 3.216l1.402-1.192a15.429 15.429 0 0 0-2.787-3.785zm-2.712.398l1.204-1.738c-1.527-1.204-3.272-2.183-5.17-2.972l-.672 1.84c1.792.829 3.326 1.794 4.638 2.87zM42.53 6.091l.645-1.77a37.492 37.492 0 0 0-5.138-1.306L37.45 4.69c1.876.37 3.567.838 5.08 1.4zm-7.084-1.742l.582-1.662a59.9 59.9 0 0 0-5.796-.52v1.688c1.876.09 3.607.258 5.214.494zM23.212 2.19v1.677a81.268 81.268 0 0 1 5.014-.077V2.107c-.41-.006-.82-.01-1.226-.01-1.284 0-2.548.037-3.788.091zm-2.006 1.783V2.296c-2.147.138-4.175.337-6.017.56v1.67c2.115-.246 4.124-.432 6.017-.554zM8.535 5.45c1.6-.256 3.16-.489 4.648-.683v-1.65a115.7 115.7 0 0 0-1.9.278A3.65 3.65 0 0 0 8.535 5.45zm1.343 41.413c-1.337-1.89-1.782-3.48-1.364-4.857.394-1.295 1.494-2.275 3.362-2.996l16.314-6.742-.24 1.726c-.137.974-.018 2.347.565 3.06.051.062.108.113.166.165l.07.056a1.466 1.466 0 0 0 .44.236c.147.05.307.084.483.096.092.007.186.006.28.007.393 0 .963-.056 1.47-.32.515-.28.939-.774 1.117-1.618l.023-.113c.137-.778.078-1.768-.19-2.947-.124-.55-.12-1.12.013-1.648l.123-.486 19.009-7.854c.292-.156 2.847-1.592 1.961-3.514-1.133-2.463-2.529-4.93-4.753-7.066-.024-.014-.05-.02-.072-.035a1.004 1.004 0 0 1-.277-.287c-1.422-1.294-3.171-2.454-5.38-3.402-.069-.009-.137-.01-.204-.035-.094-.034-.17-.092-.246-.148-1.795-.727-3.875-1.321-6.323-1.736-.032.004-.062.015-.094.015-.11 0-.22-.018-.33-.055-.02-.008-.032-.023-.051-.03-3.65-.574-8.076-.766-13.49-.451-.018 0-.033.01-.05.01-.012 0-.021-.006-.032-.006-4.09.241-8.748.775-14.05 1.646L6.6 26.919l-.46.262c-1.516.862-4.917 3.312-3.742 7.437.288 1.015.686 1.678 1.066 1.773 1.357.339 2.196 1.51 1.993 2.788-.38 2.389-1.023 6.787-1.07 9.405-.015.752.186 1.303.609 1.69.821.746 2.38.77 2.861.715.634-.046 2.435-.378 2.883-1.316.374-.784-.261-1.96-.863-2.81zm.715-2.818l15.922-6.415c-.386-.74-.544-1.558-.596-2.262l-13.292 5.493c-1.26.486-1.991 1.064-2.192 1.723-.12.397-.059.889.158 1.461zm46-21.93a5.601 5.601 0 0 1-1.967 1.39l-20.332 8.401c.005.09.018.182.039.274.18.786.271 1.508.297 2.18l17.87-7.2c.075-.029 2.394-.853 3.54-3.217a6.441 6.441 0 0 0 .552-1.829zM7.542 30.17c0-3.777 8.117-5.794 9.695-5.794.837 0 1.892 0 2.83.449.845.404 1.85 1.313 1.85 3.352 0 3.355-3.449 6.084-7.689 6.084-3.587 0-6.686 0-6.686-4.09zm2.006.001c0 1.654 0 2.097 4.68 2.097 3.081 0 5.683-1.872 5.683-4.09 0-1.215-.499-1.453-.713-1.556-.523-.25-1.307-.252-1.941-.252h-.012c-1.548 0-7.697 2.027-7.697 3.801zm.32-16.173c0-3.777 8.117-5.794 9.694-5.794h.012c.802 0 1.885.003 2.82.449.844.403 1.849 1.312 1.849 3.352 0 3.354-3.449 6.084-7.69 6.084-3.586 0-6.685 0-6.685-4.091zm2.005.001c0 1.654 0 2.097 4.68 2.097 3.082 0 5.684-1.873 5.684-4.09 0-1.215-.5-1.454-.713-1.556-.523-.25-1.308-.253-1.941-.253h-.013c-1.547 0-7.697 2.028-7.697 3.802zm30.058-.852h.011c.802 0 1.885.002 2.82.45.844.402 1.85 1.311 1.85 3.351 0 3.355-3.45 6.083-7.69 6.083-3.587 0-6.685 0-6.685-4.09 0-3.777 8.116-5.795 9.694-5.794zm-7.689 5.795c0 1.652 0 2.095 4.68 2.095 3.082 0 5.684-1.872 5.684-4.089 0-1.214-.5-1.454-.713-1.557-.525-.25-1.31-.251-1.944-.251h-.012c-1.545 0-7.695 2.027-7.695 3.802z"/></g></g></svg>