<svg xmlns="http://www.w3.org/2000/svg" width="52" height="54" viewBox="0 0 52 54"><g><g><path fill="#4fb1c9" d="M20.96 25.27h-3.651c-3.491 0-6.33-2.85-6.33-6.352v-3.664a1 1 0 0 1 .997-1.002h3.652c.82 0 1.602.162 2.321.45a6.361 6.361 0 0 1 1.711-5.806l2.584-2.59a.994.994 0 0 1 1.411 0l2.582 2.591a6.363 6.363 0 0 1 1.71 5.812 6.265 6.265 0 0 1 2.34-.455h3.65a1 1 0 0 1 .999 1.001v3.666c0 3.502-2.84 6.351-6.33 6.351h-3.652a1 1 0 0 1-.998-1.001v-3.664c0-.156.012-.308.022-.46l-.323.324a.993.993 0 0 1-1.411 0l-.308-.308c.01.146.022.294.022.443v3.664a1 1 0 0 1-.998 1.002zm9.325-9.014c-2.39 0-4.334 1.951-4.334 4.35v2.662h2.653c2.39 0 4.334-1.95 4.334-4.348v-2.664zm-9.213.207l1.876 1.883 1.877-1.883a4.366 4.366 0 0 0 0-6.15l-1.877-1.884-1.876 1.883a4.366 4.366 0 0 0 0 6.15zm-3.763 6.805h2.653v-2.662c0-2.399-1.945-4.35-4.334-4.35h-2.653v2.664c0 2.397 1.944 4.348 4.334 4.348zM28.946 36.06h-1.997a1 1 0 0 0-.998-1.001 1 1 0 0 0-.998 1.001h-1.997a3.004 3.004 0 0 1 2.995-3.005 3.004 3.004 0 0 1 2.995 3.005zm7.985 1.002h-1.996c0-.552-.449-1.002-.999-1.002s-.998.45-.998 1.002h-1.996a3.003 3.003 0 0 1 2.994-3.005 3.003 3.003 0 0 1 2.995 3.005zm15.07-1.986v.104c0 10.376-8.412 18.817-18.751 18.817a18.568 18.568 0 0 1-9.974-2.911H7.99l-.012-.002-.018.002c-.134 0-.268-.027-.395-.081L.602 48a1.003 1.003 0 0 1-.604-.92V1.002A1 1 0 0 1 .996 0H7.96l.015.003.015-.003h30.937a1 1 0 0 1 .999 1.002v14.299c.294-.172.633-.275.998-.275h1.996c1.101 0 1.996.898 1.996 2.003 0 .087-.011.174-.033.258L41.438 30.25c4.4.543 10.564 1.837 10.564 4.827zm-11.11-17.789l-3.67 13.814-.49 1.948a1 1 0 0 1-1.211.728 1.002 1.002 0 0 1-.725-1.216l.187-.745c-.575-.015-1.141-.038-1.732-.038-11.055 0-16.756 2.312-16.756 3.299 0 .986 5.7 3.298 16.756 3.298 11.055 0 16.755-2.312 16.755-3.298 0-.479-2.269-2.062-9.082-2.868l-.377 1.45a1 1 0 0 1-1.216.718 1.003 1.003 0 0 1-.715-1.222l.595-2.293v-.003-.002l3.675-13.828h-1.961c0 .087-.011.174-.033.258zM6.96 2.004H1.994V46.42l4.967 2.144zM20.32 48.778a19.009 19.009 0 0 1-.68-.688c-.22-.234-.436-.468-.642-.71-.188-.22-.366-.45-.543-.679a18.754 18.754 0 0 1-.61-.817c-.157-.228-.303-.465-.45-.701-.183-.292-.368-.581-.535-.882-.14-.254-.264-.518-.393-.778-.147-.296-.298-.59-.429-.893-.128-.297-.235-.605-.347-.91-.104-.28-.218-.557-.309-.843-.114-.36-.2-.73-.293-1.098-.061-.246-.137-.487-.189-.736-.092-.438-.152-.887-.212-1.335-.026-.19-.067-.377-.086-.568a18.927 18.927 0 0 1-.103-1.958v-.104c0-4.195 12.266-5.303 18.752-5.303.762 0 1.51.015 2.246.038l2.433-9.158V2.005H8.988v47.079h11.637c-.107-.097-.2-.208-.306-.306zm29.465-11.002c-3.833 1.998-11.752 2.602-16.534 2.602-4.782 0-12.701-.604-16.534-2.602.037.233.06.468.106.698.019.089.04.176.06.264.094.442.205.878.335 1.307.018.059.033.12.052.179.147.47.318.932.506 1.384l.099.232a16.876 16.876 0 0 0 1.536 2.799c.283.418.584.822.903 1.212l.054.063c.296.358.609.7.933 1.03l.18.186c.329.327.672.639 1.027.937.097.083.199.16.298.239.272.219.553.428.838.63.124.086.246.176.373.26a16.612 16.612 0 0 0 9.235 2.799c8.357 0 15.283-6.178 16.533-14.219z"/></g></g></svg>