<svg xmlns="http://www.w3.org/2000/svg" width="59" height="56" viewBox="0 0 59 56"><g><g><path fill="#4b811b" d="M21.417 8.515c.989-2.5 3.845-3.74 6.377-2.763a.99.99 0 0 1 .57 1.286 1.01 1.01 0 0 1-1.302.564c-1.497-.579-3.19.155-3.774 1.635-.586 1.48.156 3.156 1.652 3.735a.99.99 0 0 1 .57 1.286 1.008 1.008 0 0 1-1.302.564c-2.527-.977-3.78-3.806-2.791-6.307zm33.387 9.948a4.789 4.789 0 0 1 .076 3.726 4.863 4.863 0 0 1-2.61 2.688 4.968 4.968 0 0 1-1.974.412 4.975 4.975 0 0 1-1.793-.336 4.87 4.87 0 0 1-2.717-2.582.99.99 0 0 1 .517-1.308c.511-.219 1.101.01 1.323.512a2.881 2.881 0 0 0 1.609 1.528c.726.28 1.517.264 2.23-.045a2.876 2.876 0 0 0 1.544-1.59 2.83 2.83 0 0 0-.045-2.206.99.99 0 0 1 .517-1.308 1.01 1.01 0 0 1 1.323.51zm-13.98-2.89a4.79 4.79 0 0 1 .457 3.699 4.848 4.848 0 0 1-2.321 2.936 4.94 4.94 0 0 1-2.413.628c-1.718 0-3.39-.89-4.293-2.473a.989.989 0 0 1 .38-1.354 1.01 1.01 0 0 1 1.367.376 2.896 2.896 0 0 0 1.757 1.36 2.926 2.926 0 0 0 2.214-.268 2.872 2.872 0 0 0 1.374-1.739c.208-.74.112-1.52-.27-2.189a.988.988 0 0 1 .379-1.353 1.01 1.01 0 0 1 1.369.377zm-12.226-5.088a1.01 1.01 0 0 1 1.341-.462c.5.24.708.833.467 1.327a2.872 2.872 0 0 0 1.354 3.85c1.446.69 3.192.093 3.892-1.339.241-.493.84-.701 1.342-.461.499.24.708.833.467 1.327-.85 1.735-2.61 2.747-4.439 2.747a4.939 4.939 0 0 1-2.137-.486c-2.443-1.17-3.468-4.087-2.287-6.503zm-7.72 5.745c.221-.501.809-.732 1.322-.513.508.22.741.806.518 1.308a2.874 2.874 0 0 0 1.503 3.796c.715.31 1.507.323 2.23.042a2.884 2.884 0 0 0 1.608-1.53c.221-.5.81-.731 1.322-.512.508.22.741.806.518 1.308a4.858 4.858 0 0 1-2.714 2.584 4.952 4.952 0 0 1-3.767-.073c-2.485-1.075-3.625-3.952-2.54-6.41zm11.875-5.79a.986.986 0 0 1 .136-1.398c.43-.35 1.06-.288 1.413.134a2.902 2.902 0 0 0 1.97 1.035 2.887 2.887 0 0 0 2.133-.646 2.863 2.863 0 0 0 .393-4.058.986.986 0 0 1 .136-1.398c.43-.35 1.06-.288 1.414.134a4.839 4.839 0 0 1-.664 6.854 4.919 4.919 0 0 1-3.603 1.091 4.905 4.905 0 0 1-3.328-1.748zM10.93 24.196c-.615 0-1.24-.114-1.845-.357-2.514-1.009-3.73-3.854-2.71-6.342a1.009 1.009 0 0 1 1.309-.548.991.991 0 0 1 .553 1.295c-.604 1.473.116 3.157 1.605 3.755 1.492.598 3.192-.116 3.795-1.588a1.01 1.01 0 0 1 1.309-.547.99.99 0 0 1 .553 1.294c-.776 1.89-2.623 3.038-4.569 3.038zm48.065-2.289c0 1.393-.556 2.7-1.567 3.683a5.314 5.314 0 0 1-1.875 1.178 4.566 4.566 0 0 1-1.388 3.578 4.833 4.833 0 0 1-3.334 1.348 5.442 5.442 0 0 1-.95 1.23 5.677 5.677 0 0 1-3.965 1.592 5.732 5.732 0 0 1-2.694-.696c-4.276.194-7.142 6.666-8.518 19.274l-.076.697a2.51 2.51 0 0 1-2.504 2.214h-5.02c-1.314 0-2.416-1.013-2.507-2.307-.74-10.484-6.36-19.468-10.489-19.582-.39.113-.788.188-1.192.188A4.22 4.22 0 0 1 9.97 33.12a4.033 4.033 0 0 1-1.212-2.567 5.659 5.659 0 0 1-3.886-1.595 5.416 5.416 0 0 1-1.649-3.852 4.715 4.715 0 0 1-1.82-1.102 4.553 4.553 0 0 1 0-6.57A4.729 4.729 0 0 1 3.1 16.375a5.131 5.131 0 0 1 1.565-3.697c1.422-1.382 3.509-1.849 5.385-1.266 1.495-1.393 3.655-1.788 5.547-1.092a6.765 6.765 0 0 1 2.59-2.134v-.04c0-3.664 3.06-6.646 6.822-6.646a6.91 6.91 0 0 1 3.04.699 6.107 6.107 0 0 1 4.716-2.207 6.14 6.14 0 0 1 4.388 1.845 7.273 7.273 0 0 1 2.205-.338c3.976 0 7.212 3.15 7.212 7.023 0 .087-.02.172-.023.26 1.63-.49 3.473-.13 4.761 1.121a4.57 4.57 0 0 1 1.095 1.656 5.36 5.36 0 0 1 3.8 1.514 5.108 5.108 0 0 1 1.317 5.247 5.092 5.092 0 0 1 1.475 3.587zm-42.153-9.84c-.018.032-.03.066-.046.099a4.693 4.693 0 0 0-.217.51c-.02.057-.037.113-.055.17-.05.162-.09.327-.122.494-.01.056-.023.111-.031.168-.033.22-.054.442-.054.668 0 1.528.777 2.961 2.08 3.834a.989.989 0 0 1 .243 1.415 3.797 3.797 0 0 0-.772 2.29c0 2.155 1.81 3.907 4.038 3.907.268 0 .537-.03.805-.087l.027-.007a4.3 4.3 0 0 0 .795-.257c.007-.003.014-.002.02-.005a4.13 4.13 0 0 0 .833-.474 1.005 1.005 0 0 1 .756-.194c.268.039.508.184.667.4a5.175 5.175 0 0 0 1.977 1.617c.181.087.366.16.553.225l.045.014c.172.058.347.108.524.147.031.007.064.011.095.017.163.033.327.061.49.08.049.004.098.004.146.008.15.012.3.023.45.022.2-.001.4-.014.595-.036.114-.014.225-.039.338-.06.09-.016.179-.028.266-.049.128-.03.254-.071.38-.11.066-.022.134-.04.2-.065.132-.048.262-.105.392-.165a5.155 5.155 0 0 0 2.19-1.87.985.985 0 0 1 .86-.454c.347.007.666.19.845.485a3.25 3.25 0 0 0 1.62 1.346h.002c.175.067.353.115.532.152.037.007.074.016.113.022.182.031.365.051.55.051 1.8 0 3.262-1.414 3.262-3.153 0-.37-.07-.742-.21-1.102a.99.99 0 0 1 .552-1.272c1.207-.497 1.986-1.636 1.986-2.903 0-.59-.174-1.168-.5-1.67a.99.99 0 0 1 .374-1.416c.555-.292.901-.842.901-1.437 0-.591-.326-1.123-.873-1.422a.98.98 0 0 1-.295-.245c-.058-.07-.093-.154-.129-.237-.013-.03-.037-.056-.047-.087a.973.973 0 0 1-.038-.305c0-.021-.008-.04-.007-.06.006-.086.039-.169.067-.252.013-.04.013-.078.031-.116l.002-.005.004-.01.076-.181.004-.007c.28-.63.43-1.293.43-1.974 0-2.777-2.335-5.037-5.202-5.037-.73 0-1.44.147-2.113.437a1.01 1.01 0 0 1-1.21-.32 4.093 4.093 0 0 0-3.271-1.625c-1.472 0-2.83.778-3.54 2.03a.998.998 0 0 1-.648.482 1.018 1.018 0 0 1-.798-.15 4.894 4.894 0 0 0-2.77-.854c-2.655 0-4.814 2.091-4.814 4.66 0 .194.016.38.039.567a.993.993 0 0 1-.675 1.064 4.764 4.764 0 0 0-2.718 2.291zm17.27 21.078c.917-1.63 2.028-3.31 3.27-4.742a4.096 4.096 0 0 1-.534-.436c-.04-.04-.067-.074-.096-.11a5.3 5.3 0 0 1-1.451-.956c-.421.438-.898.81-1.41 1.125.167 1.47.282 3.208.22 5.119zm-7.625-4.956a7.227 7.227 0 0 1-1.693-1.3c-.138.074-.282.133-.425.195-.23.167-.46.33-.689.453a2.912 2.912 0 0 1-1.757 2.6 30.029 30.029 0 0 1 5.45 8.342c.057-3.168-.085-7.197-.886-10.29zm-12.814 3.994c.004-.001.006-.004.01-.006a2.072 2.072 0 0 0 1.21-1.091 1.008 1.008 0 0 1 1.282-.508 2.22 2.22 0 0 0 2.36-.463 2.032 2.032 0 0 0 .574-1.012.994.994 0 0 1 .472-.636c.238-.138.524-.173.791-.095.367.107.758.017 1.02-.239a.93.93 0 0 0 .274-.533c-.064-.003-.127-.013-.191-.017a5.324 5.324 0 0 1-.294-.026c-.103-.012-.203-.029-.304-.046a4.977 4.977 0 0 1-.286-.052c-.098-.022-.194-.048-.292-.073a7.094 7.094 0 0 1-.275-.079c-.095-.03-.189-.066-.282-.1-.089-.033-.177-.066-.263-.103-.09-.038-.18-.082-.267-.125-.085-.042-.17-.082-.251-.127-.086-.047-.168-.098-.25-.148-.08-.049-.161-.096-.238-.149-.08-.055-.157-.113-.235-.17-.074-.056-.15-.11-.22-.17-.075-.06-.146-.127-.217-.191-.069-.063-.139-.123-.204-.188-.07-.069-.134-.141-.199-.213-.062-.067-.126-.133-.184-.203-.063-.077-.12-.156-.18-.235-.054-.071-.109-.142-.16-.216-.055-.083-.106-.168-.158-.254-.046-.076-.095-.15-.138-.228-.05-.088-.092-.181-.136-.272-.038-.08-.08-.156-.114-.238-.042-.096-.076-.196-.112-.296-.03-.08-.061-.156-.087-.238-.034-.106-.06-.217-.087-.327-.019-.077-.043-.152-.059-.23-.026-.123-.042-.25-.06-.375-.01-.068-.023-.135-.03-.203a5.713 5.713 0 0 1 .618-3.245 6.574 6.574 0 0 1-2.202-4.888c0-.343.031-.68.083-1.012.015-.088.04-.174.059-.261.049-.244.104-.485.18-.72.01-.028.013-.059.023-.088a3.374 3.374 0 0 0-3.278.812 3.3 3.3 0 0 0-.267.298c-.293.36-.801.473-1.218.275-1.28-.607-2.815-.36-3.818.616a3.15 3.15 0 0 0-.91 2.846.98.98 0 0 1-.168.757c-.157.219-.397.366-.666.407a2.755 2.755 0 0 0-1.519.746 2.585 2.585 0 0 0-.002 3.736c.433.42.987.683 1.603.758.273.033.52.175.684.393a.983.983 0 0 1 .184.76 3.424 3.424 0 0 0 .997 3.043 3.675 3.675 0 0 0 3.357.938 1.011 1.011 0 0 1 .942.283c.242.25.334.608.245.943-.195.724.013 1.47.555 1.998.62.601 1.521.76 2.297.48zm27.633-.002a5.267 5.267 0 0 1-.364-.586 3.073 3.073 0 0 1-.565-.065 2.98 2.98 0 0 1-.4-.122c-.046-.017-.095-.024-.141-.044-.09-.036-.173-.09-.26-.136-.081-.043-.165-.077-.243-.128-.005-.004-.009-.009-.014-.011a3.018 3.018 0 0 1-.431-.345c-.004-.004-.006-.01-.01-.013a2.937 2.937 0 0 1-.386-.472c-.011-.017-.027-.03-.037-.045-3.175 3.948-5.366 9.788-5.39 9.853-.185.5-.738.768-1.25.602a.99.99 0 0 1-.659-1.213c1.093-3.845 1.086-7.706.81-10.593-.052.015-.106.021-.158.034a6.987 6.987 0 0 1-1.25.194 9.868 9.868 0 0 1-.34.017c-.056 0-.11.008-.166.008-.097 0-.191-.011-.287-.015-.11-.005-.22-.008-.329-.017a7.52 7.52 0 0 1-.485-.061c-.071-.011-.144-.015-.216-.027 1.21 6.192.409 14.418.37 14.798a1.007 1.007 0 0 1-1.973.143c-1.606-6.352-4.949-10.626-6.913-12.701a4.138 4.138 0 0 1-.66.626c-.022.018-.047.03-.07.047-.11.08-.222.159-.34.227-.048.028-.1.05-.148.077-.096.05-.19.102-.287.146-.06.027-.124.046-.185.07-.09.035-.18.072-.272.1-.066.022-.132.034-.198.052-.093.023-.184.048-.277.066-.068.013-.135.019-.202.028-.095.013-.189.028-.284.035-.068.005-.136.003-.204.005-.096.002-.191.005-.287 0-.07-.002-.14-.011-.21-.018-.078-.007-.155-.01-.232-.021 4.917 2.299 9.566 11.366 10.236 20.884a.5.5 0 0 0 .502.458h5.021a.51.51 0 0 0 .509-.45l.075-.687c.517-4.743 1.996-18.306 8.6-20.7zm15.68-10.276a3.14 3.14 0 0 0-1.271-2.523.984.984 0 0 1-.288-1.228 3.137 3.137 0 0 0-.631-3.666 3.399 3.399 0 0 0-2.963-.891 1.017 1.017 0 0 1-.759-.167.988.988 0 0 1-.41-.654 2.598 2.598 0 0 0-.763-1.459c-.95-.924-2.436-1.03-3.508-.311.058.062.101.135.154.201.06.076.122.15.176.229a3.5 3.5 0 0 1 .215.373c.041.08.086.156.122.239.06.146.105.298.147.45.02.074.048.142.063.217a3.5 3.5 0 0 1 .076.704c0 .25-.027.497-.079.736a3.605 3.605 0 0 1-1.076 1.88c.249.606.378 1.251.378 1.908 0 1.773-.926 3.39-2.42 4.325.063.314.094.631.094.951 0 .334-.04.658-.102.974-.02.105-.056.2-.083.302a5.046 5.046 0 0 1-.195.61c-.045.113-.101.218-.154.327a5.062 5.062 0 0 1-.285.51 5.035 5.035 0 0 1-.585.743c-.084.09-.169.179-.26.263a5.475 5.475 0 0 1-.465.374c-.094.069-.184.14-.283.204-.194.121-.4.225-.61.322-.08.037-.154.084-.237.118a5.329 5.329 0 0 1-.9.278.932.932 0 0 1-.03.127.94.94 0 0 0 .043.654c.01.022.016.046.027.067a.92.92 0 0 0 .17.23c.037.035.082.06.123.09.215.15.48.213.751.173.042-.007.085-.007.128-.018h.005a1.01 1.01 0 0 1 .263-.035c.02 0 .042.01.063.01.042.003.08.01.12.019a1.002 1.002 0 0 1 .51.262c.024.023.05.042.07.067.076.089.14.187.183.303a3.433 3.433 0 0 0 1.444 1.777l.003.002c1.4.878 3.291.723 4.515-.467.357-.345.628-.752.81-1.212a1.01 1.01 0 0 1 1.09-.619 2.837 2.837 0 0 0 2.385-.745c.7-.68.964-1.677.69-2.601a.98.98 0 0 1 .11-.807c.153-.241.401-.406.683-.454a3.337 3.337 0 0 0 1.78-.895c.622-.606.966-1.41.967-2.267z"/></g></g></svg>